<?xml version="1.0" encoding="UTF-8" standalone="no"?>
<!-- Created with Inkscape (http://www.inkscape.org/) -->

<svg
   xmlns:dc="http://purl.org/dc/elements/1.1/"
   xmlns:cc="http://creativecommons.org/ns#"
   xmlns:rdf="http://www.w3.org/1999/02/22-rdf-syntax-ns#"
   xmlns:svg="http://www.w3.org/2000/svg"
   xmlns="http://www.w3.org/2000/svg"
   xmlns:sodipodi="http://sodipodi.sourceforge.net/DTD/sodipodi-0.dtd"
   xmlns:inkscape="http://www.inkscape.org/namespaces/inkscape"
   width="210mm"
   height="297mm"
   viewBox="0 0 210 297"
   version="1.1"
   id="svg4543"
   inkscape:version="0.92.1 r15371"
   sodipodi:docname="page-A4.svg">
  <defs
     id="defs4537" />
  <sodipodi:namedview
     id="base"
     pagecolor="#ffffff"
     bordercolor="#666666"
     borderopacity="1.0"
     inkscape:pageopacity="0.0"
     inkscape:pageshadow="2"
     inkscape:zoom="1.4"
     inkscape:cx="641.03562"
     inkscape:cy="82.674115"
     inkscape:document-units="mm"
     inkscape:current-layer="layer1"
     showgrid="false"
     inkscape:window-width="1280"
     inkscape:window-height="995"
     inkscape:window-x="1591"
     inkscape:window-y="-9"
     inkscape:window-maximized="1" />
  <metadata
     id="metadata4540">
    <rdf:RDF>
      <cc:Work
         rdf:about="">
        <dc:format>image/svg+xml</dc:format>
        <dc:type
           rdf:resource="http://purl.org/dc/dcmitype/StillImage" />
        <dc:title></dc:title>
      </cc:Work>
    </rdf:RDF>
  </metadata>
  <g
     inkscape:label="Calque 1"
     inkscape:groupmode="layer"
     id="layer1">
    <g
       id="g5099"
       transform="matrix(0.43249374,0,0,0.43249374,-27.633999,205.22984)">
      <path
         style="fill:#dad91a;stroke-width:0.26458332"
         d="m 178.33512,194.3168 c -0.98528,-0.0628 -1.24553,-0.1692 -1.13279,-0.46302 0.0805,-0.20981 0.007,-0.38147 -0.16281,-0.38147 -0.60773,0 0.1942,-0.48854 0.98726,-0.60145 l 0.79375,-0.11301 -0.85989,-0.0396 c -0.77025,-0.0355 -0.8599,-0.1224 -0.8599,-0.8334 0,-0.45645 0.14054,-0.79547 0.33073,-0.7978 0.23949,-0.003 0.23014,-0.0678 -0.0339,-0.235 -0.20054,-0.12702 -0.2879,-0.3551 -0.19412,-0.50683 0.0938,-0.15174 0.0437,-0.35424 -0.11124,-0.45001 -0.19593,-0.12109 -0.18737,-0.28785 0.0281,-0.54745 0.23698,-0.28555 0.23633,-0.37332 -0.003,-0.37332 -0.18032,0 -0.22732,-0.13798 -0.11107,-0.32608 0.28644,-0.46346 0.31247,-1.25887 0.0466,-1.4232 -0.12403,-0.0767 -0.14878,-0.26352 -0.055,-0.41526 0.0938,-0.15174 0.15757,-0.85051 0.14174,-1.55283 -0.0281,-1.24797 -0.009,-1.27937 0.826,-1.38328 l 0.85477,-0.10633 -0.94475,-0.0423 -0.94475,-0.0423 0.16909,-1.31806 c 0.0998,-0.7781 0.0587,-1.42843 -0.10036,-1.5875 -0.14819,-0.14819 -0.96,-0.26944 -1.80402,-0.26944 -1.44639,0 -1.53458,0.0367 -1.53458,0.63941 0,0.35168 0.13097,0.68307 0.29104,0.73643 0.1886,0.0629 0.29104,1.14158 0.29104,3.06475 v 2.96774 h 0.78291 c 1.03199,0 0.72145,0.46123 -0.45975,0.68282 -1.03185,0.19358 -1.08769,0.72317 -0.0908,0.86094 0.93422,0.12911 1.28852,0.57291 0.45738,0.57291 -0.37734,0 -0.7546,0.1786 -0.83837,0.39688 -0.20427,0.53232 -2.19726,0.49137 -4.24903,-0.0873 -2.32398,-0.65547 -2.23402,-1.10331 0.22162,-1.10331 h 2.00643 v -0.89773 c 0,-1.06061 -0.15133,-1.1317 -2.31511,-1.08759 -2.40025,0.0489 -2.09856,-0.49422 0.66146,-1.19084 l 1.12448,-0.28382 v -1.97417 c 0,-1.13973 0.11183,-1.97418 0.26458,-1.97418 0.14552,0 0.26459,-0.29766 0.26459,-0.66146 0,-0.63771 -0.0617,-0.66146 -1.71979,-0.66146 h -1.7198 l -0.004,2.05052 c -0.005,2.29499 -0.33575,3.26999 -0.7398,2.17774 -0.13302,-0.35959 -0.21327,-1.45805 -0.17832,-2.44103 l 0.0635,-1.78723 h -0.74348 c -0.50108,0 -0.79611,0.16582 -0.9049,0.50859 -0.0888,0.27972 -0.64509,0.94556 -1.23625,1.47964 -0.95952,0.86686 -1.20256,0.96089 -2.26512,0.87638 l -1.19028,-0.0947 0.15939,1.16291 c 0.0877,0.6396 0.39768,1.54846 0.68892,2.01969 0.30597,0.49507 0.52952,1.31833 0.52952,1.95003 0,0.60129 0.11906,1.09325 0.26458,1.09325 0.46997,0 0.28062,0.46326 -0.2456,0.60087 -0.34388,0.0899 -0.54569,0.42341 -0.61911,1.02305 l -0.10893,0.88963 -0.0424,-0.92605 c -0.041,-0.89504 -0.0778,-0.92638 -1.10068,-0.93641 -1.02948,-0.0101 -1.05946,0.0151 -1.10065,0.92604 l -0.0423,0.93642 -0.10893,-0.88963 c -0.0734,-0.59964 -0.27524,-0.93312 -0.61912,-1.02305 -0.52621,-0.13761 -0.71557,-0.60087 -0.2456,-0.60087 0.14552,0 0.26458,-0.45311 0.26458,-1.00693 0,-0.65858 0.22883,-1.31708 0.66146,-1.90348 0.3638,-0.49311 0.66146,-1.14727 0.66146,-1.4537 0,-0.30642 0.1227,-0.67984 0.27267,-0.8298 0.18717,-0.18717 0.0879,-0.826 -0.31652,-2.0373 -0.58895,-1.76389 -0.58961,-1.76462 -1.59559,-1.76462 h -1.00639 v 2.88211 c 0,2.34851 -0.0753,2.911 -0.40662,3.03814 -0.312,0.11973 -0.38223,0.46541 -0.30179,1.48548 0.12912,1.63727 -0.3996,4.53314 -0.73003,3.99849 -0.1247,-0.20177 -0.28517,-1.48415 -0.3566,-2.84972 -0.0714,-1.36557 -0.23255,-2.54632 -0.35804,-2.62388 -0.1255,-0.0776 -0.22817,-1.44368 -0.22817,-3.03582 v -2.8948 h -1.85209 c -1.79916,0 -1.85208,0.0189 -1.85208,0.66146 0,0.37515 0.15285,0.66146 0.35312,0.66146 0.27528,0 0.32753,0.48115 0.23704,2.18281 -0.12836,2.41362 -0.54644,3.37344 -1.46938,3.37344 -0.99401,0 -1.23745,-0.50182 -1.23745,-2.55084 0,-1.05372 -0.11906,-1.98943 -0.26458,-2.07937 -0.52547,-0.32476 -0.26777,-0.92604 0.39688,-0.92604 0.52916,0 0.66145,-0.13229 0.66145,-0.66146 0,-0.64676 -0.0441,-0.66146 -1.98437,-0.66146 -1.12448,0 -1.99871,0.11465 -2.01745,0.26459 -0.0182,0.14552 -0.0628,0.38364 -0.0992,0.52916 -0.0364,0.14552 -0.081,0.80656 -0.0992,1.46897 -0.0299,1.08803 -0.10976,1.23113 -0.82682,1.48109 -0.73481,0.25616 -1.13092,1.01869 -0.52917,1.01869 0.14553,0 0.26459,0.1786 0.26459,0.39688 0,0.21828 -0.10959,0.39687 -0.24353,0.39687 -0.13393,0 -0.31756,0.80367 -0.40806,1.78594 -0.25975,2.81943 -0.45417,4.34031 -0.54333,4.25027 -0.0453,-0.0457 -0.15592,-0.91652 -0.24593,-1.93517 -0.23199,-2.6253 -0.40258,-3.56081 -0.76006,-4.16818 -0.24373,-0.41409 -0.23974,-0.55756 0.0181,-0.65093 0.59786,-0.21651 0.34572,-0.81244 -0.46302,-1.09437 -0.77302,-0.26947 -0.79375,-0.32196 -0.79375,-2.01025 v -1.73356 h -2.94503 -2.94503 l 0.15012,0.92511 c 0.0826,0.50882 0.58898,1.63612 1.12536,2.50513 0.91102,1.47596 0.96732,1.6894 0.85506,3.2414 -0.0661,0.91376 0.0209,2.41184 0.19322,3.32907 0.26067,1.38713 0.25318,1.64457 -0.0445,1.53033 -0.19685,-0.0755 -0.35792,-0.014 -0.35792,0.13676 0,0.15371 -0.23244,0.20034 -0.52916,0.10616 -0.38666,-0.12272 -0.52917,-0.0476 -0.52917,0.27915 0,0.36743 -0.0707,0.3884 -0.39687,0.11772 -0.30022,-0.24915 -0.48601,-0.25539 -0.76286,-0.0256 -0.2841,0.23578 -0.40411,0.20435 -0.53644,-0.14051 -0.15722,-0.40969 -0.19746,-0.40733 -0.51752,0.0304 -0.32907,0.45003 -0.35625,0.45059 -0.52501,0.0108 -0.14489,-0.37759 -0.25116,-0.40306 -0.57172,-0.13702 -0.32459,0.26939 -0.39522,0.23977 -0.40216,-0.16864 -0.008,-0.48103 -0.0192,-0.48122 -0.37875,-0.007 -0.32143,0.42425 -0.35312,0.0224 -0.23996,-3.04271 0.16107,-4.36244 0.17024,-4.4074 1.15031,-5.64066 0.58099,-0.73108 0.79973,-1.28838 0.79973,-2.03753 v -1.03121 l -2.71198,0.0754 -2.71198,0.0754 -0.4136,2.09587 c -0.31424,1.59236 -0.53672,2.14407 -0.92604,2.29651 -0.28184,0.11035 -0.36361,0.20901 -0.18171,0.21923 0.23109,0.013 0.33073,0.57283 0.33073,1.85823 0,2.04531 -0.34391,3.07729 -1.09059,3.27255 -0.41145,0.1076 -0.49691,0.38448 -0.49691,1.60992 0,0.81399 -0.11906,1.47998 -0.26458,1.47998 -0.14553,0 -0.26459,-0.65484 -0.26459,-1.45521 0,-0.83593 -0.11771,-1.4552 -0.27661,-1.4552 -0.15213,0 -0.56885,-0.29225 -0.92604,-0.64944 -0.57363,-0.57364 -0.64943,-0.88018 -0.64943,-2.62644 0,-1.66037 0.0742,-1.99638 0.46302,-2.098 0.34376,-0.0898 0.30754,-0.1289 -0.1406,-0.15169 -0.70096,-0.0356 -0.71975,-0.0793 -1.12297,-2.61038 l -0.3056,-1.91823 h -3.0271 c -3.52942,0 -3.60359,0.0582 -2.90398,2.27759 0.34827,1.10484 0.5699,1.42658 0.98273,1.42658 0.8802,0 1.5796,0.51963 1.97586,1.468 0.54109,1.29502 0.46245,2.17224 -0.25944,2.89413 -0.50916,0.50916 -0.78253,0.59434 -1.38907,0.43281 -1.14164,-0.30403 -1.87817,-1.61144 -2.07301,-3.67983 -0.30071,-3.19215 -1.09479,-3.91583 -1.33984,-1.22104 -0.34378,3.78069 -1.21935,5.37023 -2.7548,5.00119 -0.95448,-0.2294 -1.33437,-0.85232 -1.33437,-2.18806 0,-0.92978 0.15371,-1.31412 0.7734,-1.9338 0.42537,-0.42537 1.00712,-0.7734 1.29277,-0.7734 0.32801,0 0.66586,-0.31683 0.91696,-0.8599 1.23461,-2.67015 1.04055,-2.84427 -3.16997,-2.84427 h -3.29706 l 0.0883,3.15389 c 0.0799,2.85418 0.14969,3.23682 0.73435,4.02665 0.76753,1.0369 1.1025,2.87958 0.75333,4.14416 -0.29031,1.05142 -0.52278,0.8924 -0.96373,-0.65924 -0.35076,-1.23426 -0.9151,-1.56174 -1.9882,-1.15375 -0.76654,0.29144 -0.8608,0.78568 -0.40123,2.10398 0.16234,0.46571 0.22063,0.92128 0.12953,1.01238 -0.28875,0.28875 -1.72302,-1.30079 -2.03979,-2.26059 -0.27689,-0.83899 -0.22365,-1.07968 0.5892,-2.66378 0.81589,-1.59003 0.89846,-1.96658 0.94961,-4.33047 0.0308,-1.42395 -0.0117,-2.76546 -0.0945,-2.98112 -0.12356,-0.32198 -0.85079,-0.39211 -4.06642,-0.39211 h -3.915957 l -0.09063,1.45521 c -0.04985,0.80036 -0.05101,2.09007 -0.0026,2.86602 l 0.08806,1.41081 2.439234,0.45942 c 2.662423,0.50146 3.354853,0.78075 2.938683,1.18531 -0.5314,0.51657 -4.347505,1.07141 -8.530597,1.2403 -4.072595,0.16444 -4.301061,0.1476 -4.329453,-0.31913 -0.06469,-1.06346 -0.0039,-2.26689 0.12091,-2.39165 0.07217,-0.0722 1.026553,-0.13434 2.120847,-0.13815 l 1.989625,-0.007 0.08211,-2.88115 0.08211,-2.88114 -2.696364,5.3e-4 c -1.53523,2.6e-4 -2.767721,0.11599 -2.862068,0.26865 -0.431399,0.69802 -0.182034,1.89812 0.556964,2.68047 l 0.768135,0.81319 -1.075207,-0.17603 c -0.955036,-0.15635 -1.10657,-0.10719 -1.355833,0.43989 -0.154345,0.33875 -0.286712,1.5382 -0.29415,2.66545 -0.0077,1.17056 -0.206129,2.64325 -0.462626,3.43392 -0.471057,1.45204 -0.910219,2.17183 -0.917278,1.50343 -0.0033,-0.31612 -0.04408,-0.32046 -0.23151,-0.0247 -0.28267,0.44612 -0.34731,0.33219 -1.08296,-1.90874 -0.411857,-1.25459 -0.549736,-2.1525 -0.446909,-2.91041 0.08179,-0.60284 0.01895,-1.61454 -0.139645,-2.24823 l -0.28835,-1.15216 -1.019954,0.1631 c -1.191138,0.19047 -1.277677,-0.038 -0.345974,-0.91325 0.520253,-0.48876 0.656036,-0.84628 0.595312,-1.56748 -0.0652,-0.77442 -0.191857,-0.9473 -0.740125,-1.01023 -0.652118,-0.0748 -0.683393,0.0129 -2.214919,6.21771 -0.854403,3.4615 -1.700666,6.45104 -1.880584,6.64342 -0.223575,0.23906 -0.63217,0.29255 -1.29081,0.16899 l -0.963694,-0.18079 v -20.4449 -20.4449 l 0.595312,-0.19293 c 1.277638,-0.41406 3.898442,0.003 3.912335,0.62318 0.0054,0.23874 0.03512,2.45813 0.06614,4.93199 l 0.05642,4.49791 0.859896,0.0829 0.859896,0.0829 v -2.50199 c 0,-1.98676 0.08223,-2.53356 0.399329,-2.65524 0.219631,-0.0843 0.368459,-0.29273 0.330729,-0.46323 -0.05095,-0.23022 1.256431,-0.29483 5.0805,-0.25105 5.974253,0.0684 5.974211,0.0684 5.859515,2.54443 -0.03516,0.75899 0.01685,1.81053 0.115572,2.33676 l 0.179496,0.9568 1.6242,-0.008 c 1.08318,-0.005 1.489596,-0.0869 1.220105,-0.24475 -0.325213,-0.19051 -0.396424,-0.76777 -0.364792,-2.95717 0.02533,-1.75307 0.145501,-2.75585 0.337949,-2.82 0.164256,-0.0547 0.298646,-0.31973 0.298646,-0.58884 0,-0.2691 0.238125,-0.56486 0.529167,-0.65724 0.291042,-0.0924 0.529167,-0.27899 0.529167,-0.4147 0,-0.13571 0.639464,-0.24675 1.421033,-0.24675 h 1.421032 l 0.15146,1.52135 c 0.0833,0.83675 0.12845,2.62265 0.10032,3.96868 l -0.0511,2.44733 1.10815,7e-5 c 0.84523,5e-5 1.30132,-0.17637 1.92233,-0.74357 0.95142,-0.86899 1.24792,-1.75372 1.46203,-4.3626 0.3039,-3.70288 0.44277,-4.68335 0.66333,-4.68335 0.12263,0 0.29532,0.92274 0.38374,2.05052 0.47959,6.11691 1.09438,7.43962 3.56839,7.67734 l 1.34307,0.12905 v -2.41491 c 0,-2.13865 0.0539,-2.41491 0.47076,-2.41491 0.25892,0 0.63763,-0.23153 0.84159,-0.5145 0.36497,-0.50638 0.37868,-0.50543 0.8689,0.0598 0.46492,0.53606 0.74344,0.57556 4.18459,0.59345 3.3538,0.0174 3.70044,-0.0247 3.84069,-0.46655 0.13263,-0.41789 0.40871,-0.47699 1.97664,-0.42311 1.90206,0.0654 2.16692,-0.0254 2.27052,-0.7781 0.22804,-1.65686 0.75389,-3.53811 1.05997,-3.79214 0.19874,-0.16494 0.36134,-0.4639 0.36134,-0.66437 0,-0.20046 0.11906,-0.36447 0.26459,-0.36447 0.14552,0 0.26458,0.13945 0.26458,0.30989 0,0.17044 0.17309,0.50117 0.38465,0.73494 0.21156,0.23377 0.52915,1.31471 0.70576,2.40208 0.1766,1.08737 0.44348,2.05798 0.59307,2.15689 0.14959,0.0989 0.83407,0.11328 1.52109,0.0319 1.47501,-0.1747 2.6392,0.063 2.54857,0.52038 -0.0488,0.24634 0.85314,0.32348 3.6924,0.31577 3.56832,-0.01 3.78312,-0.0403 4.27702,-0.6098 0.51562,-0.59451 0.52148,-0.59498 0.6926,-0.0558 0.11181,0.3523 0.3992,0.54376 0.81621,0.54376 0.58643,0 0.64363,0.10581 0.64363,1.19062 0,0.65484 0.12446,1.19063 0.27657,1.19063 0.17146,0 0.21217,0.3433 0.10712,0.90326 -0.2281,1.21587 0.31291,1.47799 3.05052,1.47799 1.92579,0 2.21276,-0.0667 2.79552,-0.64944 0.57164,-0.57163 0.64943,-0.88224 0.64943,-2.59291 0,-1.15882 0.12819,-2.07167 0.3175,-2.26099 0.44356,-0.44356 5.08687,-0.43223 5.425,0.0132 0.13808,0.1819 0.22894,0.724 0.20191,1.20465 -0.0373,0.66416 0.0424,0.8388 0.33216,0.72761 0.20972,-0.0805 0.55015,-0.14632 0.75653,-0.14632 0.20638,0 0.37902,-0.20836 0.38365,-0.46302 0.008,-0.44097 0.0252,-0.44097 0.3599,0 0.19332,0.25466 0.48043,0.46302 0.63804,0.46302 0.15761,0 0.4719,0.26462 0.69844,0.58804 0.38904,0.55543 0.41187,0.48209 0.41187,-1.32292 v -1.91095 h 0.83907 c 0.46148,0 1.04635,-0.1876 1.29971,-0.41688 0.25335,-0.22929 0.67945,-0.44876 0.94687,-0.48772 0.53673,-0.0782 0.92961,-1.83103 0.69439,-3.09799 -0.0935,-0.50368 0.13345,-1.07696 0.82356,-2.08021 0.7088,-1.03041 0.95265,-1.24186 0.95265,-0.82606 0,0.30737 0.11601,0.55886 0.25779,0.55886 0.54684,0 1.05615,1.59709 1.09382,3.43002 0.0381,1.85263 0.0531,1.89123 0.79288,2.03919 0.41474,0.0829 0.89037,0.31505 1.05698,0.5158 0.1666,0.20074 0.67529,0.36472 1.13041,0.36439 l 0.8275,-6.1e-4 -0.0827,1.91883 c -0.0788,1.82745 -0.0623,1.89047 0.34573,1.32351 0.23565,-0.32742 0.65111,-0.59531 0.92323,-0.59531 0.27211,0 0.54921,-0.20836 0.61576,-0.46302 0.11524,-0.44098 0.12246,-0.44098 0.15169,0 0.018,0.27139 0.24323,0.46302 0.54424,0.46302 0.28246,0 0.58834,0.121 0.67975,0.2689 0.31627,0.51174 0.60116,-0.004 0.51177,-0.92641 -0.0674,-0.69582 0.0341,-0.99254 0.40811,-1.19271 0.71187,-0.38098 4.85051,-0.34068 5.24224,0.0511 0.47185,0.47185 0.45883,37.15635 -0.0132,37.29117 -0.1819,0.052 -0.90635,0.0577 -1.60989,0.0129 z m -93.024207,-4.63298 -0.210281,-0.56844 -0.180424,0.56847 c -0.09923,0.31265 -0.0953,0.90601 0.0087,1.31857 l 0.189174,0.7501 0.201531,-0.75012 c 0.110843,-0.41258 0.106905,-1.00593 -0.0087,-1.31858 z m 27.684137,-2.69901 c 0.40155,-0.84206 0.40472,-0.97061 0.033,-1.34231 -0.37169,-0.37169 -0.48182,-0.35019 -1.14988,0.22445 -0.59436,0.51125 -0.70414,0.77371 -0.56143,1.34231 0.26281,1.04711 1.12705,0.93153 1.67829,-0.22445 z m 5.84676,-0.0468 c 0.0639,-0.65806 -0.0633,-0.93646 -0.58368,-1.27741 -0.36595,-0.23978 -0.78967,-0.35915 -0.94158,-0.26526 -0.73704,0.45551 0.1491,2.6291 1.00574,2.46697 0.27544,-0.0521 0.46813,-0.39494 0.51952,-0.9243 z m -33.551484,-3.09067 c 0,-0.49155 0.178594,-1.32116 0.396875,-1.84358 0.563235,-1.34801 0.510882,-1.49602 -0.529166,-1.49602 -1.058278,0 -1.059146,0.003 -0.538193,1.73379 0.213317,0.7088 0.319472,1.56116 0.2359,1.89413 -0.08987,0.35809 -0.03214,0.60542 0.141318,0.60542 0.161296,0 0.293266,-0.40218 0.293266,-0.89374 z m 66.145834,0.54458 c 0,-0.0465 -0.29615,-0.34208 -0.65811,-0.6568 l -0.65811,-0.57222 0.0544,0.6568 c 0.0407,0.49157 0.20624,0.65679 0.65811,0.65679 0.33206,0 0.60375,-0.0381 0.60375,-0.0846 z m 0.26458,-1.12167 c 0,-0.20969 -0.11906,-0.38126 -0.26458,-0.38126 -0.14552,0 -0.26459,0.24515 -0.26459,0.54478 0,0.29963 0.11907,0.4712 0.26459,0.38126 0.14552,-0.0899 0.26458,-0.33509 0.26458,-0.54478 z m 12.16153,-1.68678 c 0.46526,-0.86935 0.31298,-1.07573 -0.79375,-1.07573 -1.02369,0 -1.05474,0.0245 -0.75415,0.59531 0.56673,1.07616 1.13472,1.25245 1.5479,0.48042 z m -12.70929,-0.48042 c -0.0163,-0.63519 -0.0456,-0.6604 -0.23148,-0.19843 -0.11708,0.29104 -0.16122,0.61846 -0.0981,0.7276 0.22412,0.38741 0.3479,0.18865 0.32956,-0.52917 z m 10.55328,0.065 c -0.16604,-0.36441 -0.35173,-0.61274 -0.41264,-0.55182 -0.12358,0.12357 0.41287,1.2144 0.59721,1.2144 0.0645,0 -0.0185,-0.29816 -0.18457,-0.66258 z m -76.762185,-5.40876 c 2.819589,-1.28011 3.13003,-6.37368 0.507904,-8.33345 -0.594904,-0.44464 -1.208623,-0.5608 -3.355282,-0.63511 l -2.627204,-0.0909 v 4.61091 c 0,2.53599 0.07937,4.69028 0.176389,4.78729 0.403876,0.40387 4.196626,0.16141 5.298193,-0.3387 z m -2.630311,-1.54461 c -0.403445,-0.0834 -0.463021,-0.43371 -0.463021,-2.7222 0,-2.53803 0.02004,-2.62749 0.595313,-2.65778 1.089322,-0.0574 1.384274,0.0532 2.013141,0.7546 0.532109,0.59348 0.606934,0.9028 0.507739,2.09897 -0.161333,1.94546 -1.107215,2.84615 -2.653172,2.52641 z m 12.523103,1.38665 c 1.048894,-0.93495 1.301376,-2.00902 1.301376,-5.53616 v -3.31579 h -1.030026 c -0.695173,0 -1.082235,0.13605 -1.190625,0.41851 -0.08833,0.23019 -0.160599,1.73886 -0.160599,3.35261 0,2.3589 -0.08584,3.02894 -0.437882,3.41794 -0.570546,0.63045 -1.284251,0.61381 -1.943368,-0.0453 -0.472722,-0.47272 -0.529167,-0.88195 -0.529167,-3.83646 v -3.30729 h -1.190625 -1.190625 v 3.16964 c 0,3.68152 0.395813,5.05306 1.693669,5.86878 1.097243,0.68964 3.816607,0.58124 4.677872,-0.18647 z m 8.709403,0.20962 c 1.68685,-0.84295 2.0235,-2.91608 0.6491,-3.99718 -0.61745,-0.48569 -0.62089,-0.50971 -0.13577,-0.94874 1.13591,-1.02799 0.86775,-2.70721 -0.57257,-3.58537 -0.70073,-0.42723 -1.33471,-0.52849 -3.31389,-0.52929 l -2.447397,-9.9e-4 v 4.7625 4.7625 l 2.447397,-5.3e-4 c 1.80001,-2.6e-4 2.69227,-0.12278 3.37313,-0.46302 z m -3.574453,-1.61202 c -0.07117,-0.0712 -0.129408,-0.52629 -0.129408,-1.01136 0,-0.8628 0.02469,-0.88194 1.137711,-0.88194 0.62574,0 1.28058,0.14287 1.45521,0.3175 0.4078,0.4078 0.40841,1.18258 0.001,1.43429 -0.3643,0.22515 -2.27151,0.33465 -2.46465,0.14151 z m -0.08123,-4.58919 c 0.0815,-0.84876 0.117003,-0.87326 1.142443,-0.78814 1.2943,0.10744 1.68085,0.42024 1.29003,1.04392 -0.17934,0.28618 -0.70059,0.48633 -1.40108,0.53797 l -1.115502,0.0822 z m 12.651823,5.75962 c 0,-0.78976 -0.10075,-0.92715 -0.79104,-1.07876 -0.43508,-0.0956 -1.29828,-0.13698 -1.91823,-0.0921 l -1.12719,0.0817 -0.0734,-3.76544 -0.0734,-3.76543 h -1.05107 -1.05107 v 4.7625 4.7625 h 3.04271 3.04271 z m 3.70417,-3.85748 v -4.7625 h -1.02785 -1.02785 l -0.18239,1.45982 c -0.18717,1.49802 -0.15456,7.51094 0.0427,7.86674 0.0605,0.10914 0.57921,0.19844 1.15271,0.19844 h 1.04272 z m 3.78981,4.39177 c 0.0782,-0.20391 0.10771,-1.65996 0.0655,-3.23568 l -0.0768,-2.86493 1.61648,3.24694 1.61648,3.24695 1.32292,-0.0774 1.32292,-0.0774 0.0901,-3.04081 c 0.0495,-1.67244 0.0103,-3.7858 -0.0872,-4.69635 l -0.17729,-1.65555 h -1.05944 -1.05943 l 0.0883,3.15025 c 0.0486,1.73264 0.0219,3.10896 -0.0593,3.05849 -0.0812,-0.0505 -0.78538,-1.46809 -1.56484,-3.15025 l -1.4172,-3.05849 h -1.41172 -1.41172 v 4.7625 4.7625 h 1.03002 c 0.63922,0 1.084,-0.14066 1.17229,-0.37073 z m 38.49259,-14.5098 c -0.0593,-0.8186 -0.20663,-1.14596 -0.54439,-1.21003 -0.38627,-0.0733 -0.46302,0.11273 -0.46302,1.1222 0,1.04491 0.0743,1.21003 0.54438,1.21003 0.47667,0 0.53426,-0.13958 0.46303,-1.1222 z m 14.33843,-0.0878 c 0,-1.00947 -0.0768,-1.19547 -0.46302,-1.12222 -0.83182,0.15775 -0.77789,2.33225 0.0578,2.33225 0.30478,0 0.40518,-0.29982 0.40518,-1.21003 z m 1.50243,-0.91315 c -0.13615,-0.89213 -0.4441,-0.90736 -0.4441,-0.022 0,0.49354 0.11002,0.78546 0.26089,0.69222 0.14349,-0.0887 0.22593,-0.39029 0.18321,-0.67025 z"
         id="path5103"
         inkscape:connector-curvature="0" />
      <path
         style="fill:#08446e;stroke-width:0.26458332"
         d="m 178.33512,194.3168 c -0.98528,-0.0628 -1.24553,-0.1692 -1.13279,-0.46302 0.0805,-0.20981 0.007,-0.38147 -0.16281,-0.38147 -0.60773,0 0.1942,-0.48854 0.98726,-0.60145 l 0.79375,-0.11301 -0.85989,-0.0396 c -0.77025,-0.0355 -0.8599,-0.1224 -0.8599,-0.8334 0,-0.45645 0.14054,-0.79547 0.33073,-0.7978 0.23949,-0.003 0.23014,-0.0678 -0.0339,-0.235 -0.20054,-0.12702 -0.2879,-0.3551 -0.19412,-0.50683 0.0938,-0.15174 0.0437,-0.35424 -0.11124,-0.45001 -0.19593,-0.12109 -0.18737,-0.28785 0.0281,-0.54745 0.23698,-0.28555 0.23633,-0.37332 -0.003,-0.37332 -0.18032,0 -0.22732,-0.13798 -0.11107,-0.32608 0.28644,-0.46346 0.31247,-1.25887 0.0466,-1.4232 -0.12403,-0.0767 -0.14878,-0.26352 -0.055,-0.41526 0.0938,-0.15174 0.15757,-0.85051 0.14174,-1.55283 -0.0281,-1.24797 -0.009,-1.27937 0.826,-1.38328 l 0.85477,-0.10633 -0.94475,-0.0423 -0.94475,-0.0423 0.16451,-1.28238 c 0.0905,-0.70531 0.11875,-1.41969 0.0628,-1.5875 -0.0627,-0.18817 -0.75245,-0.30512 -1.79945,-0.30512 -1.61893,0 -1.69774,0.0297 -1.69774,0.63941 0,0.35168 0.13097,0.68307 0.29104,0.73643 0.1886,0.0629 0.29104,1.14158 0.29104,3.06475 v 2.96774 h 0.78291 c 1.03199,0 0.72145,0.46123 -0.45975,0.68282 -1.03185,0.19358 -1.08769,0.72317 -0.0908,0.86094 0.93422,0.12911 1.28852,0.57291 0.45738,0.57291 -0.37734,0 -0.7546,0.1786 -0.83837,0.39688 -0.20427,0.53232 -2.19726,0.49137 -4.24903,-0.0873 -2.32398,-0.65547 -2.23402,-1.10331 0.22162,-1.10331 h 2.00643 v -0.89773 c 0,-1.06061 -0.15133,-1.1317 -2.31511,-1.08759 -2.40025,0.0489 -2.09856,-0.49422 0.66146,-1.19084 l 1.12448,-0.28382 v -1.97417 c 0,-1.13973 0.11183,-1.97418 0.26458,-1.97418 0.14552,0 0.26459,-0.29766 0.26459,-0.66146 0,-0.63771 -0.0617,-0.66146 -1.71979,-0.66146 h -1.7198 l -0.004,2.05052 c -0.005,2.29499 -0.33575,3.26999 -0.7398,2.17774 -0.13302,-0.35959 -0.21327,-1.45805 -0.17832,-2.44103 l 0.0635,-1.78723 h -0.74348 c -0.50108,0 -0.79611,0.16582 -0.9049,0.50859 -0.0888,0.27972 -0.64509,0.94556 -1.23625,1.47964 -0.95952,0.86686 -1.20256,0.96089 -2.26512,0.87638 l -1.19028,-0.0947 0.15939,1.16291 c 0.0877,0.6396 0.39768,1.54846 0.68892,2.01969 0.30597,0.49507 0.52952,1.31833 0.52952,1.95003 0,0.60129 0.11906,1.09325 0.26458,1.09325 0.46997,0 0.28062,0.46326 -0.2456,0.60087 -0.34388,0.0899 -0.54569,0.42341 -0.61911,1.02305 l -0.10893,0.88963 -0.0424,-0.92605 c -0.041,-0.89504 -0.0778,-0.92638 -1.10068,-0.93641 -1.02948,-0.0101 -1.05946,0.0151 -1.10065,0.92604 l -0.0423,0.93642 -0.10893,-0.88963 c -0.0734,-0.59964 -0.27524,-0.93312 -0.61912,-1.02305 -0.52621,-0.13761 -0.71557,-0.60087 -0.2456,-0.60087 0.14552,0 0.26458,-0.45311 0.26458,-1.00693 0,-0.65858 0.22883,-1.31708 0.66146,-1.90348 0.3638,-0.49311 0.66146,-1.14727 0.66146,-1.4537 0,-0.30642 0.1227,-0.67984 0.27267,-0.8298 0.18717,-0.18717 0.0879,-0.826 -0.31652,-2.0373 -0.58895,-1.76389 -0.58961,-1.76462 -1.59559,-1.76462 h -1.00639 v 2.88211 c 0,2.34851 -0.0753,2.911 -0.40662,3.03814 -0.312,0.11973 -0.38223,0.46541 -0.30179,1.48548 0.12912,1.63727 -0.3996,4.53314 -0.73003,3.99849 -0.1247,-0.20177 -0.28517,-1.48415 -0.3566,-2.84972 -0.0714,-1.36557 -0.23255,-2.54632 -0.35804,-2.62388 -0.1255,-0.0776 -0.22817,-1.44368 -0.22817,-3.03582 v -2.8948 h -1.85209 c -1.79916,0 -1.85208,0.0189 -1.85208,0.66146 0,0.37515 0.15285,0.66146 0.35312,0.66146 0.27528,0 0.32753,0.48115 0.23704,2.18281 -0.12836,2.41362 -0.54644,3.37344 -1.46938,3.37344 -0.99401,0 -1.23745,-0.50182 -1.23745,-2.55084 0,-1.05372 -0.11906,-1.98943 -0.26458,-2.07937 -0.52547,-0.32476 -0.26777,-0.92604 0.39688,-0.92604 0.52916,0 0.66145,-0.13229 0.66145,-0.66146 0,-0.64676 -0.0441,-0.66146 -1.98437,-0.66146 -1.12448,0 -1.99871,0.11465 -2.01745,0.26459 -0.0182,0.14552 -0.0628,0.38364 -0.0992,0.52916 -0.0364,0.14552 -0.081,0.80656 -0.0992,1.46897 -0.0299,1.08803 -0.10976,1.23113 -0.82682,1.48109 -0.73481,0.25616 -1.13092,1.01869 -0.52917,1.01869 0.14553,0 0.26459,0.1786 0.26459,0.39688 0,0.21828 -0.10959,0.39687 -0.24353,0.39687 -0.13393,0 -0.31756,0.80367 -0.40806,1.78594 -0.25975,2.81943 -0.45417,4.34031 -0.54333,4.25027 -0.0453,-0.0457 -0.15592,-0.91652 -0.24593,-1.93517 -0.23199,-2.6253 -0.40258,-3.56081 -0.76006,-4.16818 -0.24373,-0.41409 -0.23974,-0.55756 0.0181,-0.65093 0.59786,-0.21651 0.34572,-0.81244 -0.46302,-1.09437 -0.77302,-0.26947 -0.79375,-0.32196 -0.79375,-2.01025 v -1.73356 h -2.94503 -2.94503 l 0.15012,0.92511 c 0.0826,0.50882 0.58898,1.63612 1.12536,2.50513 0.91102,1.47596 0.96732,1.6894 0.85506,3.2414 -0.0661,0.91376 0.0209,2.41184 0.19322,3.32907 0.26067,1.38713 0.25318,1.64457 -0.0445,1.53033 -0.19685,-0.0755 -0.35792,-0.014 -0.35792,0.13676 0,0.15371 -0.23244,0.20034 -0.52916,0.10616 -0.38666,-0.12272 -0.52917,-0.0476 -0.52917,0.27915 0,0.36743 -0.0707,0.3884 -0.39687,0.11772 -0.30022,-0.24915 -0.48601,-0.25539 -0.76286,-0.0256 -0.2841,0.23578 -0.40411,0.20435 -0.53644,-0.14051 -0.15722,-0.40969 -0.19746,-0.40733 -0.51752,0.0304 -0.32907,0.45003 -0.35625,0.45059 -0.52501,0.0108 -0.14489,-0.37759 -0.25116,-0.40306 -0.57172,-0.13702 -0.32459,0.26939 -0.39522,0.23977 -0.40216,-0.16864 -0.008,-0.48103 -0.0192,-0.48122 -0.37875,-0.007 -0.32143,0.42425 -0.35312,0.0224 -0.23996,-3.04271 0.16107,-4.36244 0.17024,-4.4074 1.15031,-5.64066 0.57819,-0.72756 0.79973,-1.28942 0.79973,-2.02828 v -1.02195 h -2.65238 c -3.03925,0 -2.95649,-0.0688 -3.30867,2.74996 -0.15064,1.20565 -0.30823,1.57243 -0.75276,1.75195 -0.30922,0.12488 -0.4134,0.23459 -0.2315,0.24382 0.23126,0.0117 0.33073,0.57003 0.33073,1.8564 0,2.04531 -0.34391,3.07729 -1.09059,3.27255 -0.41145,0.1076 -0.49691,0.38448 -0.49691,1.60992 0,0.81399 -0.11906,1.47998 -0.26458,1.47998 -0.14553,0 -0.26459,-0.65484 -0.26459,-1.45521 0,-0.83593 -0.11771,-1.4552 -0.27661,-1.4552 -0.15213,0 -0.56885,-0.29225 -0.92604,-0.64944 -0.57363,-0.57364 -0.64943,-0.88018 -0.64943,-2.62644 0,-1.66037 0.0742,-1.99638 0.46302,-2.098 0.34376,-0.0898 0.30754,-0.1289 -0.1406,-0.15169 -0.70096,-0.0356 -0.71975,-0.0793 -1.12297,-2.61038 l -0.3056,-1.91823 h -3.0271 c -3.52942,0 -3.60359,0.0582 -2.90398,2.27759 0.34827,1.10484 0.5699,1.42658 0.98273,1.42658 0.8802,0 1.5796,0.51963 1.97586,1.468 0.54109,1.29502 0.46245,2.17224 -0.25944,2.89413 -0.50916,0.50916 -0.78253,0.59434 -1.38907,0.43281 -1.14164,-0.30403 -1.87817,-1.61144 -2.07301,-3.67983 -0.2931,-3.1114 -1.09509,-3.92667 -1.33026,-1.35231 -0.3686,4.03488 -1.22126,5.53173 -2.90967,5.10796 -0.85404,-0.21435 -1.18908,-0.84209 -1.18908,-2.22789 0,-0.85868 0.16751,-1.26359 0.7734,-1.86947 0.42537,-0.42537 1.00712,-0.7734 1.29277,-0.7734 0.32801,0 0.66586,-0.31683 0.91696,-0.8599 1.23461,-2.67015 1.04055,-2.84427 -3.16997,-2.84427 h -3.29706 l 0.0883,3.15389 c 0.0799,2.85418 0.14969,3.23682 0.73435,4.02665 0.76753,1.0369 1.1025,2.87958 0.75333,4.14416 -0.29031,1.05142 -0.52278,0.8924 -0.96373,-0.65924 -0.35076,-1.23426 -0.9151,-1.56174 -1.9882,-1.15375 -0.76654,0.29144 -0.8608,0.78568 -0.40123,2.10398 0.16234,0.46571 0.22063,0.92128 0.12953,1.01238 -0.28875,0.28875 -1.72302,-1.30079 -2.03979,-2.26059 -0.27689,-0.83899 -0.22365,-1.07968 0.5892,-2.66378 0.81589,-1.59003 0.89846,-1.96658 0.94961,-4.33047 0.0308,-1.42395 -0.0117,-2.76546 -0.0945,-2.98112 -0.12356,-0.32198 -0.85079,-0.39211 -4.06642,-0.39211 h -3.915957 l -0.09063,1.45521 c -0.04985,0.80036 -0.05101,2.09007 -0.0026,2.86602 l 0.08806,1.41081 2.439234,0.45942 c 2.662423,0.50146 3.354853,0.78075 2.938683,1.18531 -0.5314,0.51657 -4.347505,1.07141 -8.530597,1.2403 -4.072595,0.16444 -4.301061,0.1476 -4.329453,-0.31913 -0.06469,-1.06346 -0.0039,-2.26689 0.12091,-2.39165 0.07217,-0.0722 1.026553,-0.13434 2.120847,-0.13815 l 1.989625,-0.007 0.08211,-2.88115 0.08211,-2.88114 -2.696364,5.3e-4 c -1.53523,2.6e-4 -2.767721,0.11599 -2.862068,0.26865 -0.431399,0.69802 -0.182034,1.89812 0.556964,2.68047 l 0.768135,0.81319 -1.075207,-0.17603 c -0.955036,-0.15635 -1.10657,-0.10719 -1.355833,0.43989 -0.154345,0.33875 -0.286712,1.5382 -0.29415,2.66545 -0.0077,1.17056 -0.206129,2.64325 -0.462626,3.43392 -0.471057,1.45204 -0.910219,2.17183 -0.917278,1.50343 -0.0033,-0.31612 -0.04408,-0.32046 -0.23151,-0.0247 -0.28267,0.44612 -0.34731,0.33219 -1.08296,-1.90874 -0.411857,-1.25459 -0.549736,-2.1525 -0.446909,-2.91041 0.08179,-0.60284 0.01895,-1.61454 -0.139645,-2.24823 l -0.28835,-1.15216 -1.019954,0.1631 c -1.191138,0.19047 -1.277677,-0.038 -0.345974,-0.91325 0.520253,-0.48876 0.656036,-0.84628 0.595312,-1.56748 -0.0652,-0.77442 -0.191857,-0.9473 -0.740125,-1.01023 -0.652118,-0.0748 -0.683393,0.0129 -2.214919,6.21771 -0.854403,3.4615 -1.700666,6.45104 -1.880584,6.64342 -0.223575,0.23906 -0.63217,0.29255 -1.29081,0.16899 l -0.963694,-0.18079 v -20.4449 -20.4449 l 0.595312,-0.19293 c 1.277638,-0.41406 3.898442,0.003 3.912335,0.62318 0.0054,0.23874 0.03512,2.45813 0.06614,4.93199 l 0.05642,4.49791 0.859896,0.0829 0.859896,0.0829 v -2.50199 c 0,-1.98676 0.08223,-2.53356 0.399329,-2.65524 0.219631,-0.0843 0.368459,-0.29273 0.330729,-0.46323 -0.05095,-0.23022 1.256431,-0.29483 5.0805,-0.25105 5.974253,0.0684 5.974211,0.0684 5.859515,2.54443 -0.03516,0.75899 0.01685,1.81053 0.115572,2.33676 l 0.179496,0.9568 1.6242,-0.008 c 1.08318,-0.005 1.489596,-0.0869 1.220105,-0.24475 -0.325213,-0.19051 -0.396424,-0.76777 -0.364792,-2.95717 0.02533,-1.75307 0.145501,-2.75585 0.337949,-2.82 0.164256,-0.0547 0.298646,-0.31973 0.298646,-0.58884 0,-0.2691 0.238125,-0.56486 0.529167,-0.65724 0.291042,-0.0924 0.529167,-0.27899 0.529167,-0.4147 0,-0.13571 0.639464,-0.24675 1.421033,-0.24675 h 1.421032 l 0.15146,1.52135 c 0.0833,0.83675 0.12845,2.62265 0.10032,3.96868 l -0.0511,2.44733 1.10815,7e-5 c 0.84523,5e-5 1.30132,-0.17637 1.92233,-0.74357 0.95142,-0.86899 1.24792,-1.75372 1.46203,-4.3626 0.3039,-3.70288 0.44277,-4.68335 0.66333,-4.68335 0.12263,0 0.29532,0.92274 0.38374,2.05052 0.47959,6.11691 1.09438,7.43962 3.56839,7.67734 l 1.34307,0.12905 v -2.41491 c 0,-2.13865 0.0539,-2.41491 0.47076,-2.41491 0.25892,0 0.63763,-0.23153 0.84159,-0.5145 0.36497,-0.50638 0.37868,-0.50543 0.8689,0.0598 0.46492,0.53606 0.74344,0.57556 4.18459,0.59345 3.3538,0.0174 3.70044,-0.0247 3.84069,-0.46655 0.13263,-0.41789 0.40871,-0.47699 1.97664,-0.42311 1.90206,0.0654 2.16692,-0.0254 2.27052,-0.7781 0.22804,-1.65686 0.75389,-3.53811 1.05997,-3.79214 0.19874,-0.16494 0.36134,-0.4639 0.36134,-0.66437 0,-0.20046 0.11906,-0.36447 0.26459,-0.36447 0.14552,0 0.26458,0.13945 0.26458,0.30989 0,0.17044 0.17309,0.50117 0.38465,0.73494 0.21156,0.23377 0.52915,1.31471 0.70576,2.40208 0.1766,1.08737 0.44348,2.05798 0.59307,2.15689 0.14959,0.0989 0.83407,0.11328 1.52109,0.0319 1.47501,-0.1747 2.6392,0.063 2.54857,0.52038 -0.0488,0.24634 0.85314,0.32348 3.6924,0.31577 3.56832,-0.01 3.78312,-0.0403 4.27702,-0.6098 0.51562,-0.59451 0.52148,-0.59498 0.6926,-0.0558 0.11181,0.3523 0.3992,0.54376 0.81621,0.54376 0.58643,0 0.64363,0.10581 0.64363,1.19062 0,0.65484 0.12446,1.19063 0.27657,1.19063 0.17146,0 0.21217,0.3433 0.10712,0.90326 -0.2281,1.21587 0.31291,1.47799 3.05052,1.47799 1.92579,0 2.21276,-0.0667 2.79552,-0.64944 0.57164,-0.57163 0.64943,-0.88224 0.64943,-2.59291 0,-1.15882 0.12819,-2.07167 0.3175,-2.26099 0.44356,-0.44356 5.08687,-0.43223 5.425,0.0132 0.13808,0.1819 0.22894,0.724 0.20191,1.20465 -0.0373,0.66416 0.0424,0.8388 0.33216,0.72761 0.20972,-0.0805 0.55015,-0.14632 0.75653,-0.14632 0.20638,0 0.37902,-0.20836 0.38365,-0.46302 0.008,-0.44097 0.0252,-0.44097 0.3599,0 0.19332,0.25466 0.48043,0.46302 0.63804,0.46302 0.15761,0 0.4719,0.26462 0.69844,0.58804 0.38904,0.55543 0.41187,0.48209 0.41187,-1.32292 v -1.91095 h 0.83907 c 0.46148,0 1.04635,-0.1876 1.29971,-0.41688 0.25335,-0.22929 0.67945,-0.44876 0.94687,-0.48772 0.53673,-0.0782 0.92961,-1.83103 0.69439,-3.09799 -0.0935,-0.50368 0.13345,-1.07696 0.82356,-2.08021 0.7088,-1.03041 0.95265,-1.24186 0.95265,-0.82606 0,0.30737 0.11601,0.55886 0.25779,0.55886 0.54684,0 1.05615,1.59709 1.09382,3.43002 0.0381,1.85263 0.0531,1.89123 0.79288,2.03919 0.41474,0.0829 0.89037,0.31505 1.05698,0.5158 0.1666,0.20074 0.67529,0.36472 1.13041,0.36439 l 0.8275,-6.1e-4 -0.0827,1.91883 c -0.0788,1.82745 -0.0623,1.89047 0.34573,1.32351 0.23565,-0.32742 0.65111,-0.59531 0.92323,-0.59531 0.27211,0 0.54921,-0.20836 0.61576,-0.46302 0.11524,-0.44098 0.12246,-0.44098 0.15169,0 0.018,0.27139 0.24323,0.46302 0.54424,0.46302 0.28246,0 0.58834,0.121 0.67975,0.2689 0.31627,0.51174 0.60116,-0.004 0.51177,-0.92641 -0.0674,-0.69582 0.0341,-0.99254 0.40811,-1.19271 0.71187,-0.38098 4.85051,-0.34068 5.24224,0.0511 0.47185,0.47185 0.45883,37.15635 -0.0132,37.29117 -0.1819,0.052 -0.90635,0.0577 -1.60989,0.0129 z m -93.024207,-4.63298 -0.210281,-0.56844 -0.180424,0.56847 c -0.09923,0.31265 -0.0953,0.90601 0.0087,1.31857 l 0.189174,0.7501 0.201531,-0.75012 c 0.110843,-0.41258 0.106905,-1.00593 -0.0087,-1.31858 z m 27.684137,-2.69901 c 0.40155,-0.84206 0.40472,-0.97061 0.033,-1.34231 -0.37169,-0.37169 -0.48182,-0.35019 -1.14988,0.22445 -0.59436,0.51125 -0.70414,0.77371 -0.56143,1.34231 0.26281,1.04711 1.12705,0.93153 1.67829,-0.22445 z m 5.84676,-0.0468 c 0.0639,-0.65806 -0.0633,-0.93646 -0.58368,-1.27741 -0.36595,-0.23978 -0.78967,-0.35915 -0.94158,-0.26526 -0.73704,0.45551 0.1491,2.6291 1.00574,2.46697 0.27544,-0.0521 0.46813,-0.39494 0.51952,-0.9243 z m -33.551484,-3.09067 c 0,-0.49155 0.178594,-1.32116 0.396875,-1.84358 0.563235,-1.34801 0.510882,-1.49602 -0.529166,-1.49602 -1.058278,0 -1.059146,0.003 -0.538193,1.73379 0.213317,0.7088 0.319472,1.56116 0.2359,1.89413 -0.08987,0.35809 -0.03214,0.60542 0.141318,0.60542 0.161296,0 0.293266,-0.40218 0.293266,-0.89374 z m 66.145834,0.54458 c 0,-0.0465 -0.29615,-0.34208 -0.65811,-0.6568 l -0.65811,-0.57222 0.0544,0.6568 c 0.0407,0.49157 0.20624,0.65679 0.65811,0.65679 0.33206,0 0.60375,-0.0381 0.60375,-0.0846 z m 0.26458,-1.12167 c 0,-0.20969 -0.11906,-0.38126 -0.26458,-0.38126 -0.14552,0 -0.26459,0.24515 -0.26459,0.54478 0,0.29963 0.11907,0.4712 0.26459,0.38126 0.14552,-0.0899 0.26458,-0.33509 0.26458,-0.54478 z m 12.16153,-1.68678 c 0.46526,-0.86935 0.31298,-1.07573 -0.79375,-1.07573 -1.02369,0 -1.05474,0.0245 -0.75415,0.59531 0.56673,1.07616 1.13472,1.25245 1.5479,0.48042 z m -12.70929,-0.48042 c -0.0163,-0.63519 -0.0456,-0.6604 -0.23148,-0.19843 -0.11708,0.29104 -0.16122,0.61846 -0.0981,0.7276 0.22412,0.38741 0.3479,0.18865 0.32956,-0.52917 z m 10.55328,0.065 c -0.16604,-0.36441 -0.35173,-0.61274 -0.41264,-0.55182 -0.12358,0.12357 0.41287,1.2144 0.59721,1.2144 0.0645,0 -0.0185,-0.29816 -0.18457,-0.66258 z m -76.762185,-5.40876 c 2.819589,-1.28011 3.13003,-6.37368 0.507904,-8.33345 -0.594904,-0.44464 -1.208623,-0.5608 -3.355282,-0.63511 l -2.627204,-0.0909 v 4.61091 c 0,2.53599 0.07937,4.69028 0.176389,4.78729 0.403876,0.40387 4.196626,0.16141 5.298193,-0.3387 z m -2.630311,-1.54461 c -0.403445,-0.0834 -0.463021,-0.43371 -0.463021,-2.7222 0,-2.53803 0.02004,-2.62749 0.595313,-2.65778 1.089322,-0.0574 1.384274,0.0532 2.013141,0.7546 0.532109,0.59348 0.606934,0.9028 0.507739,2.09897 -0.161333,1.94546 -1.107215,2.84615 -2.653172,2.52641 z m 12.523103,1.38665 c 1.048894,-0.93495 1.301376,-2.00902 1.301376,-5.53616 v -3.31579 h -1.030026 c -0.695173,0 -1.082235,0.13605 -1.190625,0.41851 -0.08833,0.23019 -0.160599,1.73886 -0.160599,3.35261 0,2.3589 -0.08584,3.02894 -0.437882,3.41794 -0.570546,0.63045 -1.284251,0.61381 -1.943368,-0.0453 -0.472722,-0.47272 -0.529167,-0.88195 -0.529167,-3.83646 v -3.30729 h -1.190625 -1.190625 v 3.16964 c 0,3.68152 0.395813,5.05306 1.693669,5.86878 1.097243,0.68964 3.816607,0.58124 4.677872,-0.18647 z m 8.709403,0.20962 c 1.68685,-0.84295 2.0235,-2.91608 0.6491,-3.99718 -0.61745,-0.48569 -0.62089,-0.50971 -0.13577,-0.94874 1.13591,-1.02799 0.86775,-2.70721 -0.57257,-3.58537 -0.70073,-0.42723 -1.33471,-0.52849 -3.31389,-0.52929 l -2.447397,-9.9e-4 v 4.7625 4.7625 l 2.447397,-5.3e-4 c 1.80001,-2.6e-4 2.69227,-0.12278 3.37313,-0.46302 z m -3.574453,-1.61202 c -0.07117,-0.0712 -0.129408,-0.52629 -0.129408,-1.01136 0,-0.8628 0.02469,-0.88194 1.137711,-0.88194 0.62574,0 1.28058,0.14287 1.45521,0.3175 0.4078,0.4078 0.40841,1.18258 0.001,1.43429 -0.3643,0.22515 -2.27151,0.33465 -2.46465,0.14151 z m -0.08123,-4.58919 c 0.0815,-0.84876 0.117003,-0.87326 1.142443,-0.78814 1.2943,0.10744 1.68085,0.42024 1.29003,1.04392 -0.17934,0.28618 -0.70059,0.48633 -1.40108,0.53797 l -1.115502,0.0822 z m 12.651823,5.75962 c 0,-0.78976 -0.10075,-0.92715 -0.79104,-1.07876 -0.43508,-0.0956 -1.29828,-0.13698 -1.91823,-0.0921 l -1.12719,0.0817 -0.0734,-3.76544 -0.0734,-3.76543 h -1.05107 -1.05107 v 4.7625 4.7625 h 3.04271 3.04271 z m 3.70417,-3.85748 v -4.7625 h -1.02785 -1.02785 l -0.18239,1.45982 c -0.18717,1.49802 -0.15456,7.51094 0.0427,7.86674 0.0605,0.10914 0.57921,0.19844 1.15271,0.19844 h 1.04272 z m 3.78981,4.39177 c 0.0782,-0.20391 0.10771,-1.65996 0.0655,-3.23568 l -0.0768,-2.86493 1.61648,3.24694 1.61648,3.24695 1.32292,-0.0774 1.32292,-0.0774 0.0901,-3.04081 c 0.0495,-1.67244 0.0103,-3.7858 -0.0872,-4.69635 l -0.17729,-1.65555 h -1.05944 -1.05943 l 0.0883,3.15025 c 0.0486,1.73264 0.0219,3.10896 -0.0593,3.05849 -0.0812,-0.0505 -0.78538,-1.46809 -1.56484,-3.15025 l -1.4172,-3.05849 h -1.41172 -1.41172 v 4.7625 4.7625 h 1.03002 c 0.63922,0 1.084,-0.14066 1.17229,-0.37073 z m 11.87808,-2.60583 0.0748,-2.97657 0.75445,2.05052 0.75445,2.05053 h 0.98317 c 0.96031,0 0.99389,-0.034 1.44412,-1.46232 1.07791,-3.4195 1.16516,-3.41746 1.12641,0.0263 l -0.0355,3.15576 h 1.05833 1.05833 l 0.0722,-4.69636 0.0723,-4.69635 h -1.57179 -1.57179 l -0.85943,2.57969 -0.85943,2.57968 -0.83717,-2.51354 -0.83716,-2.51354 -1.50022,-0.0794 -1.50023,-0.0793 v 4.77571 4.7757 h 1.04967 1.04967 z m 10.94637,2.3151 c 0.15794,-0.62927 0.25913,-0.66146 2.07924,-0.66146 1.78401,0 1.93358,0.0447 2.2146,0.66146 0.24875,0.54594 0.48721,0.66146 1.36539,0.66146 0.5852,0 1.064,-0.0493 1.064,-0.10961 0,-0.0603 -0.58833,-1.71828 -1.30741,-3.68444 -0.71907,-1.96617 -1.43803,-4.05997 -1.59769,-4.6529 l -0.29029,-1.07805 h -1.39293 -1.39293 l -0.61497,1.91823 c -0.33823,1.05502 -1.06063,3.13418 -1.60535,4.62034 -0.54471,1.48616 -0.92641,2.76608 -0.84823,2.84427 0.0782,0.0782 0.5963,0.14216 1.15136,0.14216 0.85582,0 1.03443,-0.10053 1.17521,-0.66146 z m 0.99339,-2.84427 c 0.0743,-0.1819 0.34384,-1.03602 0.59898,-1.89804 l 0.46388,-1.56731 0.4427,1.30273 c 0.92922,2.73442 0.96887,2.49335 -0.41014,2.49335 -0.88006,0 -1.19203,-0.0942 -1.09542,-0.33073 z m 9.11487,1.45521 c 0.052,-1.28228 0.18354,-1.91628 0.39688,-1.91235 0.59887,0.011 1.4543,0.91851 2.30149,2.44151 0.79536,1.42981 0.9058,1.52136 1.83526,1.52136 0.54394,0 1.05396,-0.065 1.13337,-0.14439 0.22233,-0.22233 -1.36212,-3.06303 -2.21763,-3.97593 l -0.76193,-0.81303 0.55585,-0.50304 c 0.517,-0.46788 2.36752,-3.52842 2.36752,-3.9156 0,-0.0952 -0.51468,-0.17301 -1.14373,-0.17301 -1.07856,0 -1.17664,0.0641 -1.72138,1.12448 -0.31772,0.61846 -0.72577,1.31339 -0.9068,1.54428 -0.31365,0.40006 -1.31672,1.03541 -1.63466,1.03541 -0.0823,0 -0.14968,-0.83344 -0.14968,-1.85209 v -1.85208 h -1.05834 c -0.65941,0 -1.066,0.12466 -1.07869,0.33073 -0.0211,0.34288 -0.0134,8.9989 0.008,9.1441 0.007,0.0452 0.45867,0.0452 1.00438,0 l 0.99219,-0.0821 z m 13.81289,1.12448 v -0.92604 h -2.24896 -2.24896 v -1.05834 -1.05833 h 1.7198 1.71979 v -0.92604 -0.92604 h -1.71979 -1.7198 v -0.79375 -0.79375 l 1.78594,-0.004 c 2.09807,-0.005 2.32024,-0.11317 2.56747,-1.25272 l 0.18656,-0.8599 h -3.30001 c -2.48462,0 -3.33303,0.0861 -3.43366,0.34828 -0.16312,0.42511 -0.14876,8.38302 0.016,8.84599 0.0856,0.24046 1.01263,0.33073 3.39667,0.33073 h 3.27897 z m 3.6513,-0.88525 c 0.0794,-1.67808 0.0798,-1.6789 0.79227,-1.50008 1.01371,0.25442 1.3252,0.57872 1.94925,2.02934 0.52383,1.21768 0.60299,1.28203 1.57726,1.28203 0.70872,0 1.02575,-0.11589 1.02575,-0.37494 0,-0.52844 -1.02119,-2.8495 -1.47372,-3.34962 -0.33089,-0.36569 -0.29635,-0.49358 0.27944,-1.03451 1.40293,-1.31798 0.97895,-3.64695 -0.79917,-4.3899 -0.55239,-0.2308 -1.82291,-0.37603 -3.28971,-0.37603 h -2.38975 v 4.77771 4.77772 l 1.12448,-0.0814 1.12448,-0.0814 z m 0.0529,-4.55321 v -1.07283 l 1.25677,0.0806 c 1.08209,0.0694 1.26879,0.16541 1.34322,0.69052 0.12774,0.90108 -0.41442,1.3745 -1.57406,1.3745 -1.02285,0 -1.02593,-0.003 -1.02593,-1.07283 z m -11.95718,-8.51603 c -0.0593,-0.8186 -0.20663,-1.14596 -0.54439,-1.21003 -0.38627,-0.0733 -0.46302,0.11273 -0.46302,1.1222 0,1.04491 0.0743,1.21003 0.54438,1.21003 0.47667,0 0.53426,-0.13958 0.46303,-1.1222 z m 14.33843,-0.0878 c 0,-1.00947 -0.0768,-1.19547 -0.46302,-1.12222 -0.83182,0.15775 -0.77789,2.33225 0.0578,2.33225 0.30478,0 0.40518,-0.29982 0.40518,-1.21003 z m 1.50243,-0.91315 c -0.13615,-0.89213 -0.4441,-0.90736 -0.4441,-0.022 0,0.49354 0.11002,0.78546 0.26089,0.69222 0.14349,-0.0887 0.22593,-0.39029 0.18321,-0.67025 z"
         id="path5101"
         inkscape:connector-curvature="0" />
    </g>
    <g
       id="Layer_1_1_"
       transform="matrix(0.03375965,0,0,0.03375965,47.321684,272.30054)">
      <g
         id="g4">
        <path
           d="M 490.8,-1 H 490.2 209 v 282.1 202.5 c 0,0 1.2,15.3 13.1,21.7 l 268,109.5 V 281.1 h 0.6 v 0 333.9 l 268,-109.5 c 12,-6.5 13.1,-21.7 13.1,-21.7 V 281.1 -1 Z"
           id="path6"
           inkscape:connector-curvature="0"
           style="fill:#ffffff" />
      </g>
      <g
         id="g8">
        <rect
           x="232.39999"
           y="19.4"
           width="257.10001"
           height="261.60001"
           id="rect10"
           style="fill:#004684" />
      </g>
      <path
         d="m 363.9,105.1 92.8,-20.2 2.7,-10.4 z M 444.7,55.4 365,104 442.5,66.4 Z M 417.4,48.8 365,103.5 415.2,59.8 Z m -132.1,178.6 78.6,21.2 v -143 L 264,83.7 Z"
         id="path12"
         inkscape:connector-curvature="0"
         style="fill:#7c91bc" />
      <g
         id="g14">
        <rect
           x="489"
           y="19.4"
           width="257.10001"
           height="261.60001"
           id="rect16"
           style="fill:#eeae13" />
      </g>
      <g
         id="g18">
        <path
           d="m 689.8,131.3 -42,66.1 -18,-45.3 57.9,-21.9 c -19.1,-7.7 -43.7,-12.5 -69.9,-12.5 -62.8,0 -113.5,26.2 -113.5,58.4 0,32.2 50.8,58.4 113.5,58.4 62.7,0 113,-26.2 113,-58.4 0,-18.1 -15.8,-33.9 -41,-44.8"
           id="path20"
           inkscape:connector-curvature="0"
           style="fill:#f7d394" />
        <polygon
           points="695.9,182.1 725.9,172.8 726.4,176.6 "
           id="polygon22"
           style="fill:#eeae13" />
        <polygon
           points="574.2,211 550.7,218.6 545.2,216.5 "
           id="polygon24"
           style="fill:#eeae13" />
        <polygon
           points="633,216.5 628.2,231.8 620.5,231.8 "
           id="polygon26"
           style="fill:#eeae13" />
        <polygon
           points="556.1,152 528.2,142.2 533.2,139.5 "
           id="polygon28"
           style="fill:#eeae13" />
        <polygon
           points="620,122 628.7,139 626,122 "
           id="polygon30"
           style="fill:#eeae13" />
        <polygon
           points="538,183.2 509.7,182.6 509.2,178.8 "
           id="polygon32"
           style="fill:#eeae13" />
        <polygon
           points="584.5,39 647.8,197.9 584.5,166.8 "
           id="polygon34"
           style="fill:#ffe9c3" />
        <g
           id="g36">
          <path
             d="M 489,280.8 H 232.4 v 187.8 c 0,0 1.1,14.2 12,20.2 L 489,590.5 Z"
             id="path38"
             inkscape:connector-curvature="0"
             style="fill:#00818e" />
        </g>
        <path
           d="m 349.7,339.3 c 0,0 -9.3,19.1 -12,30.6 1.6,1.6 3.2,3.8 5,6 2.7,-7.1 7.5,-20.8 7,-36.6 M 334,330 c 0,0 -8.2,14.8 -10.4,23.5 1.6,1.6 3.2,3.2 5,5 0.9,-3.9 5.9,-15.3 5.4,-28.5 m -15.4,-8.2 c 0,0 -6.6,13.1 -8.2,18.5 1.6,1.6 3.2,3.2 5,5 1.6,-2.1 5.4,-10.9 3.2,-23.5 M 307.1,312 c 0,0 -5.5,10.9 -7.1,17.5 1.6,1.1 2.7,2.7 3.8,4.4 1.7,-3.4 4.5,-12.1 3.3,-21.9 m -10.3,-5.5 c 0,0 -5,8.7 -7.1,13.1 1.1,1.1 2.7,2.2 3.8,3.8 1.1,-3.2 3.8,-9.8 3.3,-16.9 m 91.2,56.8 c 0,0 -13.1,28.4 -17.5,44.7 2.2,2.7 4.4,6 6.6,8.7 3.2,-8.6 10.9,-29.9 10.9,-53.4 M 416.9,472 c 3.8,-8.7 15.8,-39.3 15.3,-73.7 0,0 -18,42 -22.4,63.3 2.7,3.3 4.9,7.1 7.1,10.4 M 367.2,350.8 c 0,0 -9.8,22.4 -14.2,36.6 2.2,2.2 3.8,5 6,7.1 3.3,-8.2 8.8,-24.6 8.2,-43.7 M 429.5,490 c 2.7,4.4 5.5,8.2 7.7,12 4.4,-9.3 18.5,-45.8 18,-86.8 0.5,0 -20.9,50.2 -25.7,74.8 M 410.9,380.8 c 0,0 -15.8,36 -20.2,54.6 2.2,3.2 5,6 7.1,9.3 3.8,-8.7 13.7,-34.4 13.1,-63.9 m -125,-78.1 c 0,0 -3.2,6.6 -4.4,9.3 1.1,1.1 2.2,2.2 3.2,3.2 0.6,-1.6 2.2,-5.9 1.2,-12.5 m 110.8,155.1 c -2.7,-3.8 -5.5,-7.7 -8.2,-11.4 -26.2,-7.1 -61.1,-3.8 -61.1,-3.8 31.6,15.2 61.1,15.7 69.3,15.2 m -19.1,-26.2 c -2.7,-3.2 -5.5,-7.1 -7.7,-10.4 -22.4,-6 -51.3,-2.7 -51.3,-2.7 26.8,12.5 50.8,13.1 59,13.1 M 334,376.5 c -15.8,-3.8 -36,-2.2 -36,-2.2 18.5,9.3 36,9.8 42,9.8 -1.7,-2.8 -3.9,-5.5 -6,-7.6 m 23.4,28.9 c -2.2,-2.7 -5,-6 -7.1,-8.7 -19.1,-4.4 -42.6,-2.2 -42.6,-2.2 22.4,10.3 43.2,10.9 49.7,10.9 m -8.8,92.8 c 41.5,20.2 79.7,19.6 87.3,19.1 -2.7,-4.4 -5.5,-9.3 -8.7,-13.7 -32.7,-10.4 -78.6,-5.4 -78.6,-5.4 M 275,309.3 c -6.6,-1.1 -9.3,-0.5 -9.3,-0.5 8.7,4.4 12,4.4 13.1,4.4 -1.7,-1.2 -2.7,-2.8 -3.8,-3.9 m 141.3,177.9 c -2.7,-3.8 -5,-7.7 -7.7,-11.4 -29.4,-8.7 -70.4,-5.5 -70.4,-5.5 36.6,16.9 69.9,16.9 78.1,16.9 M 319.7,359 c -13.1,-2.7 -29.4,-1.1 -29.4,-1.1 15.3,7.7 30.1,8.2 35.5,8.2 -2.3,-2.2 -3.9,-4.9 -6.1,-7.1 m -25.1,-28.5 c -9.3,-1.6 -19.1,0 -19.1,0 10.9,5 20.2,5.5 24,5.5 -1.7,-1.6 -3.3,-3.3 -4.9,-5.5 m -10.3,-11.4 c -6.6,-0.5 -14.2,0 -14.2,0 9.8,5 16.4,5 19.1,5 -2.3,-1.8 -3.3,-3.4 -4.9,-5 m 22.8,25.7 c -10.9,-2.7 -26.2,-1.1 -26.2,-1.1 14.2,7.1 27.3,7.1 31.2,7.1 -1.7,-2.8 -3.3,-4.4 -5,-6"
           id="path40"
           inkscape:connector-curvature="0"
           style="fill:#76b9c2" />
        <g
           id="g42">
          <path
             d="m 489,280.8 h 257.1 v 187.8 c 0,0 -1.1,14.2 -12,20.2 L 489.5,590.5 V 280.8 Z"
             id="path44"
             inkscape:connector-curvature="0"
             style="fill:#800029" />
        </g>
        <path
           d="m 608,312 v 24.6 l -17.5,8.7 v -24 l -18,9.8 v 24 l -15.8,8.2 v -22.4 l -18,8.7 v 185.1 l 31.2,-12.5 c 0,-13.7 0,-39.3 0,-47.5 0,-14.8 8.7,-18 12.5,-18.5 4.4,-0.5 12.5,1.1 12.5,12.5 v 43.1 l 32.2,-13.1 V 303.3 Z m 54.6,33.8 v -24 l -17.5,15.3 z m 18.5,9.3 15.8,8.2 v -22.4 z"
           id="path46"
           inkscape:connector-curvature="0"
           style="fill:#bc8081" />
      </g>
      <rect
         x="242.89999"
         y="8.1000004"
         display="none"
         width="541.29999"
         height="579.40002"
         id="rect48"
         style="display:none;fill:#898989" />
    </g>
    <g
       id="g8090"
       transform="matrix(65.281527,0,0,-34.237083,84.42329,291.93517)" />
    <g
       id="g9488"
       transform="matrix(0.21684797,0,0,0.21684797,82.16165,191.80349)">
      <path
         style="fill:#01bbd5;stroke-width:0.26458332"
         d="m -6.6815452,462.35325 c -2.4394106,-1.08579 -2.6214942,-5.56824 -0.2857156,-7.03364 1.3426149,-0.84231 2.9836189,-0.58657 4.1078758,0.64021 0.7892204,0.86119 0.8688943,1.10037 0.8679948,2.60576 -0.00106,1.75196 -0.564515,3.09495 -1.5110778,3.60153 -0.9205859,0.49269 -2.3078836,0.57391 -3.1790772,0.18614 z m 2.8820771,-1.48071 c 0.5566093,-0.65624 0.8230288,-2.26819 0.5416736,-3.27734 -0.5111459,-1.83338 -2.8110841,-2.25796 -3.6319963,-0.67049 -0.4563903,0.88256 -0.5180885,2.96581 -0.1103974,3.72759 0.5891054,1.10075 2.3510558,1.22199 3.2007201,0.22024 z m 8.2470836,1.68807 c -0.9157335,-0.19101 -1.8797693,-1.26316 -2.1978143,-2.44428 -0.5927831,-2.20143 0.4125489,-4.38109 2.3285105,-5.04845 1.0477579,-0.36496 1.1953425,-0.3556 2.0866047,0.13229 1.2128976,0.66395 1.874639,1.59163 1.9787579,2.77398 l 0.08155,0.92604 -2.5110836,0.0769 c -1.3810959,0.0423 -2.6059103,0.17174 -2.7218111,0.28764 -0.3363674,0.33637 0.2534709,1.55217 0.9858243,2.03202 0.8355621,0.54748 1.8077815,0.33989 2.582836,-0.5515 0.5048224,-0.5806 1.5319428,-0.91371 1.5319428,-0.49684 0,0.35272 -0.8862536,1.62495 -1.3211651,1.89656 -0.5739818,0.35845 -2.0539869,0.57626 -2.8241519,0.41562 z m 2.922942,-4.53509 c 0.236429,-0.38255 -0.4965753,-1.49875 -1.2083468,-1.84004 -0.9252955,-0.44368 -1.9204331,-0.0564 -2.4408447,0.95001 -0.2194481,0.42436 -0.3243686,0.8462 -0.2331588,0.93741 0.2444909,0.24449 3.7282411,0.20198 3.8823503,-0.0474 z m 30.9879995,4.52242 c -0.86247,-0.20753 -1.973543,-1.43431 -2.258938,-2.49419 -0.873472,-3.24382 1.893945,-6.14317 4.62612,-4.84667 1.05754,0.50184 1.578245,1.31592 1.812192,2.83322 l 0.152982,0.99218 H 40.04495 37.398987 l 0.08291,0.83374 c 0.177985,1.78982 2.204366,2.30677 3.445759,0.87905 0.528722,-0.60809 1.533202,-0.90728 1.530953,-0.45602 -0.0035,0.71108 -1.135697,1.91516 -2.035768,2.16511 -1.055015,0.29296 -1.20701,0.29986 -2.064284,0.0936 z m 2.824186,-4.97066 c -0.341188,-2.09375 -3.750228,-1.93632 -3.750228,0.17319 0,0.46566 0.171733,0.50449 1.91823,0.43371 1.750004,-0.0709 1.910667,-0.12415 1.831998,-0.6069 z m 3.992163,4.87729 c -0.787519,-0.23949 -1.656974,-1.33408 -1.656974,-2.08603 0,-0.54397 0.857774,-0.26515 1.5875,0.51603 0.888669,0.95132 2.112425,1.06257 2.910417,0.26458 0.95064,-0.95064 0.609044,-1.34577 -1.678327,-1.94135 -0.850317,-0.2214 -1.773052,-0.608 -2.05052,-0.85911 -1.350759,-1.22242 0.139864,-3.54954 2.273638,-3.54954 1.302806,0 2.778125,1.11482 2.778125,2.09927 0,0.51254 -0.855107,0.29305 -1.47838,-0.37948 -0.67414,-0.72741 -1.600089,-0.85155 -2.336279,-0.31324 -0.80549,0.58899 -0.412758,1.33338 0.906518,1.71824 2.828978,0.82527 3.470828,1.47228 3.064915,3.08957 -0.323189,1.28769 -2.470227,2.00379 -4.320633,1.44106 z m 17.990582,0.10347 c -1.045626,-0.21542 -2.136807,-1.56795 -2.335858,-2.8953 -0.496716,-3.31234 2.171721,-5.73307 4.826669,-4.37862 1.157846,0.59069 1.674133,1.46491 1.674133,2.83477 v 0.91359 h -2.497926 c -1.37386,0 -2.563059,0.10539 -2.642667,0.23419 -0.277865,0.4496 0.409676,1.81193 1.065171,2.11059 0.986962,0.44969 1.32344,0.37809 2.315207,-0.49269 0.775891,-0.68124 1.760215,-1.0581 1.760215,-0.67391 0,0.43307 -0.705464,1.52231 -1.192723,1.84158 -0.669894,0.43893 -2.108484,0.68374 -2.972221,0.5058 z m 2.842027,-4.93976 c 0,-1.29735 -2.002121,-2.09524 -3.058208,-1.21877 -0.495202,0.41098 -0.909097,1.33928 -0.73157,1.64079 0.06426,0.10914 0.943253,0.19843 1.95331,0.19843 1.750142,0 1.836468,-0.0292 1.836468,-0.62045 z m 7.408333,4.78123 c -1.065879,-0.37329 -2.116666,-2.12227 -2.116666,-3.52307 0,-2.89012 2.604598,-4.78398 4.94045,-3.59232 1.155441,0.58946 1.674133,1.46478 1.674133,2.82519 v 0.90401 l -2.579688,0.0757 c -2.575605,0.0756 -2.579581,0.0768 -2.512404,0.73718 0.07882,0.77493 1.197018,1.85209 1.92264,1.85209 0.277863,0 0.926388,-0.36981 1.441167,-0.82179 0.565883,-0.49685 1.099005,-0.75922 1.348314,-0.66355 0.369702,0.14187 0.36644,0.23597 -0.03153,0.90968 -0.800767,1.35559 -2.436474,1.87469 -4.086416,1.29685 z m 3.275542,-4.37399 c 0.239808,-0.38801 -0.501081,-1.50091 -1.232763,-1.85175 -0.591949,-0.28383 -0.847775,-0.28383 -1.439725,0 -0.731681,0.35084 -1.47257,1.46374 -1.232762,1.85175 0.07247,0.11727 0.951156,0.21321 1.952625,0.21321 1.001469,0 1.88015,-0.0959 1.952625,-0.21321 z m 11.805708,4.54704 c -1.733502,-0.60796 -2.381792,-1.65509 -2.38026,-3.84465 0.0021,-3.14417 2.690759,-4.9149 5.049258,-3.3255 1.149413,0.77458 1.55558,1.60116 1.560435,3.17555 0.0048,1.54741 -0.538726,2.92585 -1.363062,3.45708 -0.700106,0.45117 -2.272059,0.74595 -2.866371,0.53752 z m 2.3685,-1.56981 c 0.228205,-0.22348 0.428204,-1.06842 0.49272,-2.08159 0.09884,-1.55232 0.04762,-1.76638 -0.570537,-2.38455 -1.911887,-1.91188 -4.40115,0.89258 -3.246062,3.65709 0.601308,1.43914 2.266548,1.84447 3.323879,0.80905 z m -114.640025,1.29293 c -0.09701,-0.097 -0.17639,-2.3592 -0.17639,-5.02709 v -4.85069 h 3.722568 c 3.633738,0 3.720553,0.0133 3.638021,0.55641 -0.0796,0.52384 -0.254886,0.55869 -2.994964,0.59531 l -2.910417,0.0389 v 1.4552 1.45521 l 2.711979,0.0754 c 2.476776,0.0689 2.71198,0.11969 2.71198,0.58606 0,0.46637 -0.235204,0.51719 -2.71198,0.58606 l -2.711979,0.0754 -0.07877,1.65364 -0.07877,1.65365 h 3.055332 3.055334 v 0.66146 0.66146 h -3.527777 c -1.940279,0 -3.607154,-0.0794 -3.704166,-0.17639 z m 9.429533,-0.22005 c -0.850374,-0.59562 -1.507903,-2.55073 -1.298425,-3.86074 0.25839,-1.61588 0.814065,-2.4958 1.902175,-3.01215 1.714336,-0.8135 3.69983,-0.0351 4.2007707,1.64693 0.1493811,0.50158 0.077028,0.59531 -0.4595204,0.59531 -0.4133163,0 -0.7371553,-0.22022 -0.9227103,-0.62746 -0.376518,-0.82637 -1.517317,-1.10857 -2.329664,-0.5763 -0.342374,0.22433 -0.761892,0.87312 -0.932257,1.44176 -0.589076,1.96615 0.251386,3.7969 1.743083,3.7969 0.74458,0 1.719791,-0.73591 1.719791,-1.29778 0,-0.2032 0.283761,-0.35587 0.661459,-0.35587 0.7826399,0 0.7906964,0.0446 0.2240092,1.23876 -0.2405992,0.50703 -0.7245982,1.03104 -1.0755572,1.16447 -0.975424,0.37085 -2.800837,0.28906 -3.433154,-0.15383 z m 13.94199327,-4.63065 c 0,-4.85069 0.0185738,-5.02708 0.52916666,-5.02708 0.5105982,0 0.52916666,0.17639 0.52916666,5.02708 0,4.8507 -0.0185737,5.02709 -0.52916666,5.02709 -0.5105982,0 -0.52916666,-0.17639 -0.52916666,-5.02709 z m 14.81666673,0.002 v -5.06145 l 0.958572,0.0821 0.958572,0.0821 1.234594,3.57188 c 0.679026,1.96453 1.325451,3.80618 1.436496,4.09255 0.150789,0.38885 0.557213,-0.51543 1.605365,-3.57188 l 1.403461,-4.09255 0.96397,-0.0821 0.96397,-0.0821 v 5.06145 5.06146 l -0.595313,-0.0846 c -0.582724,-0.0828 -0.597112,-0.16847 -0.680344,-4.0533 l -0.08503,-3.96874 -1.304343,3.82354 c -0.717391,2.10295 -1.41062,3.92982 -1.540509,4.05971 -0.129892,0.12989 -0.457171,0.19374 -0.72729,0.14189 -0.368789,-0.0708 -0.832591,-1.04907 -1.861965,-3.92741 l -1.370838,-3.8331 -0.08437,3.83646 c -0.08242,3.74784 -0.09812,3.83841 -0.67968,3.921 l -0.595312,0.0845 v -5.06145 z m 11.562619,4.85741 c -0.102044,-0.10199 -0.185536,-1.78126 -0.185536,-3.73166 0,-3.52618 0.0034,-3.5457 0.595312,-3.46163 0.583753,0.0829 0.595313,0.15383 0.595313,3.6528 0,3.01135 -0.06395,3.58056 -0.409776,3.64716 -0.225378,0.0434 -0.493268,-0.005 -0.595313,-0.10662 z m 2.910417,0 c -0.102045,-0.10199 -0.185536,-1.77298 -0.185536,-3.71326 0,-3.35139 0.02646,-3.52778 0.529166,-3.52778 0.293981,0 0.529167,0.17639 0.529167,0.39688 0,0.51103 0.05315,0.50378 1.179758,-0.16094 1.122741,-0.66243 2.441745,-0.5288 3.215688,0.32579 0.42926,0.47399 0.499345,0.98388 0.499345,3.63285 0,2.90508 -0.03029,3.08147 -0.529166,3.08147 -0.48717,0 -0.539666,-0.22049 -0.661459,-2.77813 -0.07276,-1.52797 -0.228615,-2.92695 -0.346344,-3.10885 -0.289116,-0.44671 -1.812251,-0.41938 -2.447357,0.0439 -0.433622,0.31632 -0.534188,0.79995 -0.645882,3.10617 -0.105868,2.18592 -0.21414,2.74709 -0.542068,2.80949 -0.225377,0.0429 -0.493268,-0.005 -0.595312,-0.10756 z m 28.389463,-4.33062 v -4.49792 h -1.719792 c -1.543401,0 -1.719791,-0.0543 -1.719791,-0.52916 0,-0.50641 0.17639,-0.52917 4.101041,-0.52917 3.891241,0 4.101042,0.0264 4.101042,0.51654 0,0.44884 -0.21676,0.52687 -1.653646,0.59531 l -1.653646,0.0788 -0.07254,4.43177 -0.07254,4.43177 h -0.655061 -0.655061 z m 11.641667,-0.52917 c 0,-4.85069 0.01857,-5.02708 0.529166,-5.02708 0.510598,0 0.529167,0.17639 0.529167,5.02708 0,4.8507 -0.01857,5.02709 -0.529167,5.02709 -0.510598,0 -0.529166,-0.17639 -0.529166,-5.02709 z m 11.408005,4.59563 c -1.289225,-0.90301 -1.75341,-3.54133 -0.928796,-5.27907 0.233775,-0.49265 0.837017,-1.15033 1.340543,-1.46153 1.645531,-1.01699 3.914023,-0.22573 4.442775,1.54966 0.149381,0.50158 0.07703,0.59531 -0.459521,0.59531 -0.413316,0 -0.737155,-0.22022 -0.92271,-0.62746 -0.381373,-0.83703 -1.51783,-1.10824 -2.352413,-0.5614 -1.628886,1.06729 -1.531565,4.52406 0.143811,5.1081 0.917096,0.3197 1.811639,-0.0393 2.195111,-0.88091 0.212516,-0.46642 0.483047,-0.65662 0.857747,-0.60304 0.763635,0.10918 0.583787,0.95599 -0.395925,1.86419 -0.627817,0.58199 -1.037024,0.72761 -2.044764,0.72761 -0.736541,0 -1.515742,-0.17922 -1.875858,-0.43146 z m 13.842841,0.0861 c -0.0729,-0.18997 -0.09893,-1.82708 -0.05784,-3.63802 0.07231,-3.18711 0.09378,-3.29532 0.670015,-3.37716 0.39565,-0.0562 0.595313,0.0517 0.595313,0.3218 0,0.3385 0.155154,0.31481 0.929071,-0.14181 1.013028,-0.5977 2.011968,-0.51657 2.841241,0.23076 0.423204,0.38138 0.510344,0.37444 1.013322,-0.0807 0.78991,-0.71485 2.45597,-0.66397 3.21867,0.0983 0.55131,0.551 0.59665,0.83205 0.59665,3.69816 0,2.92545 -0.0301,3.10184 -0.52916,3.10184 -0.49054,0 -0.53472,-0.20172 -0.60514,-2.76285 -0.0418,-1.51956 -0.20518,-2.91855 -0.36312,-3.10885 -0.31817,-0.38337 -1.49126,-0.45617 -2.01314,-0.12492 -0.535484,0.33988 -0.855061,1.86352 -0.855061,4.07664 0,1.87588 -0.04548,2.05227 -0.529167,2.05227 -0.49412,0 -0.529166,-0.17639 -0.529166,-2.66323 0,-1.46478 -0.123251,-2.89353 -0.273892,-3.175 -0.412025,-0.76988 -1.679921,-0.66998 -2.352738,0.18537 -0.466109,0.59256 -0.54837,1.06884 -0.54837,3.175 0,2.31423 -0.03549,2.47786 -0.53747,2.47786 -0.295611,0 -0.597117,-0.15544 -0.670017,-0.34541 z m -42.930185,-3.68949 c 0.07695,-0.54182 0.227192,-0.59531 1.672047,-0.59531 1.444855,0 1.595096,0.0535 1.672048,0.59531 0.0804,0.56607 -0.0019,0.59531 -1.672048,0.59531 -1.670317,0 -1.752444,-0.0292 -1.672047,-0.59531 z m 11.858505,-4.58936 c 0,-0.56291 1.177912,-1.69449 1.763869,-1.69449 h 0.669499 l -0.753663,0.90694 c -0.650359,0.78262 -1.679705,1.26524 -1.679705,0.78755 z m 10.583334,0 c 0,-0.55508 1.177596,-1.69449 1.751274,-1.69449 h 0.656905 l -0.706327,0.92604 c -0.598183,0.78426 -1.701852,1.2826 -1.701852,0.76845 z m -47.889583,-0.75005 c 0,-0.5537 0.126159,-0.67986 0.67986,-0.67986 0.553704,0 0.66417,0.11047 0.595312,0.59531 -0.05433,0.38258 -0.297283,0.62553 -0.67986,0.67986 -0.484843,0.0689 -0.595312,-0.0416 -0.595312,-0.59531 z m -46.903452,-1.63401 c -0.329363,-0.32936 0.992751,-1.94969 1.593557,-1.95299 0.810106,-0.004 0.749527,0.27261 -0.27718,1.26774 -0.906817,0.87892 -1.048801,0.95283 -1.316377,0.68525 z m -2.713646,-5.71745 c -0.07404,-0.19294 -0.102592,-3.14631 -0.06345,-6.56304 l 0.07117,-6.21223 1.393713,-0.0801 1.393717,-0.0801 -0.0708,6.56242 -0.0708,6.56243 -1.25947,0.0808 c -0.862645,0.0553 -1.301885,-0.0298 -1.394087,-0.27006 z m 5.28606,-0.0146 c -0.07095,-0.18491 -0.09699,-3.13171 -0.05784,-6.54844 l 0.07117,-6.21223 2.002883,-0.0764 2.00288,-0.0764 1.401773,4.17746 c 0.770974,2.2976 1.493615,4.2774 1.60587,4.39955 0.112255,0.12214 0.834538,-1.7577 1.6050707,-4.17744 l 1.4009688,-4.39953 2.0017369,0.0764 2.0017343,0.0764 v 6.48229 6.48229 H -5.826859 -7.1497756 l -0.1322917,-4.32501 -0.1322917,-4.32501 -1.4200584,4.1199 c -0.7810314,2.26594 -1.5769246,4.25009 -1.7686526,4.40921 -0.191727,0.15912 -0.729279,0.25142 -1.194559,0.20511 -0.842494,-0.0839 -0.85203,-0.10176 -2.326124,-4.3679 -0.814091,-2.35602 -1.524124,-4.23973 -1.577853,-4.186 -0.05373,0.0537 -0.08121,1.93693 -0.06106,4.18489 0.04053,4.52186 0.0817,4.4171 -1.735801,4.4171 -0.501989,0 -0.970762,-0.15129 -1.041721,-0.3362 z m 19.38420865,0.17201 C 0.74029769,445.79966 0.65543259,443.3586 0.65543259,440.47881 v -5.23597 l -1.90900309,-0.0777 -1.9090031,-0.0777 0.024712,-0.79375 c 0.0136,-0.43656 0.039211,-0.94258 0.05692,-1.12448 0.02459,-0.25248 1.2841023,-0.33073 5.3238744,-0.33073 h 5.2916666 v 1.17904 1.17903 l -1.9182292,0.0777 -1.9182291,0.0777 -0.1322917,5.29166 -0.1322916,5.29167 -1.2004755,0.0783 c -0.6602624,0.0431 -1.28534049,-0.007 -1.38906245,-0.11024 z m 12.95238635,-0.0122 c -0.09701,-0.097 -0.17639,-3.07858 -0.17639,-6.62571 v -6.44933 l 2.050521,0.0773 2.05052,0.0773 1.455209,4.29832 c 0.800364,2.36408 1.523804,4.29885 1.607645,4.29948 0.08384,5.3e-4 0.774898,-1.96338 1.535681,-4.36447 l 1.383242,-4.36563 h 1.970048 1.97005 v 6.62908 6.62908 l -1.256771,-0.0806 -1.25677,-0.0806 -0.08538,-4.49792 -0.08538,-4.49791 -1.502116,4.23333 c -0.826164,2.32833 -1.598441,4.38216 -1.71617,4.56406 -0.236828,0.36593 -1.455576,0.43855 -1.961843,0.1169 -0.178096,-0.11315 -0.937791,-1.98656 -1.688208,-4.16313 -0.750419,-2.17658 -1.467906,-4.07052 -1.594416,-4.20877 -0.131157,-0.14332 -0.230021,1.64776 -0.230021,4.16719 v 4.41854 H 15.11933 c -0.630592,0 -1.225904,-0.0794 -1.322916,-0.17639 z m 16.416615,0.0125 c -0.103863,-0.10388 -0.188839,-2.25913 -0.188839,-4.78947 v -4.6006 l 1.256771,0.0806 1.256771,0.0806 v 4.63021 4.63021 l -1.067933,0.0786 c -0.587361,0.0432 -1.152908,-0.006 -1.25677,-0.11024 z m 4.497916,0 c -0.103862,-0.10388 -0.188838,-2.25261 -0.188838,-4.77497 v -4.58611 h 1.322916 c 1.194324,0 1.323311,0.0579 1.326968,0.59531 0.0024,0.33202 0.09002,0.47151 0.198437,0.3154 0.871107,-1.25441 3.666546,-1.61384 4.914837,-0.63193 1.010457,0.79482 1.273013,2.08506 1.18161,5.80664 l -0.08123,3.30729 H 42.195015 41.00439 l -0.132291,-3.33419 c -0.09006,-2.26981 -0.248214,-3.47341 -0.495417,-3.77031 -0.461626,-0.55443 -1.98184,-0.56691 -2.527996,-0.0207 -0.57287,0.57287 -0.672338,1.15123 -0.747611,4.34712 l -0.06544,2.77812 -1.067932,0.0786 c -0.587362,0.0432 -1.152909,-0.006 -1.256771,-0.11024 z m 12.908037,-0.14412 c -1.145281,-0.63188 -2.014612,-1.71489 -2.389296,-2.97659 -0.699299,-2.35479 0.155741,-4.70359 2.13438,-5.86315 1.019122,-0.59724 1.43287,-0.68718 2.72973,-0.59338 1.048562,0.0759 1.802807,0.30586 2.401964,0.7325 1.036138,0.7378 1.856195,2.40192 1.864286,3.78314 l 0.0058,0.99219 h -3.263193 c -1.794759,0 -3.332848,0.0697 -3.41798,0.15478 -0.267695,0.2677 0.364739,1.69665 0.870775,1.96747 0.799193,0.42771 2.252962,0.29557 2.972179,-0.27017 0.646168,-0.50828 2.574769,-0.75621 2.572647,-0.33073 -0.003,0.60147 -1.192943,2.00189 -1.980682,2.33103 -1.071528,0.44771 -3.742846,0.49099 -4.50062,0.0729 z m 4.101041,-5.92169 c 0,-0.65125 -1.232797,-1.70777 -1.992701,-1.70777 -0.770313,0 -2.380777,1.41127 -2.11015,1.84916 0.09093,0.14713 1.051274,0.26751 2.134092,0.26751 1.599356,0 1.968759,-0.0767 1.968759,-0.4089 z m 5.410375,5.81924 c -0.836607,-0.41289 -1.706208,-1.60669 -1.706208,-2.34231 0,-0.3148 0.264051,-0.4222 1.037981,-0.4222 0.800534,0 1.219558,0.18158 1.831729,0.79375 1.133637,1.13364 3.215706,0.97728 3.215706,-0.2415 0,-0.7125 -0.450019,-0.98431 -2.629733,-1.58834 -2.377511,-0.65884 -3.1911,-1.33583 -3.1911,-2.65533 0,-1.89607 1.399045,-2.92316 3.98177,-2.92316 1.940616,0 3.296968,0.56942 3.835093,1.61004 0.586415,1.134 0.484558,1.30037 -0.796097,1.30037 -0.893844,0 -1.247431,-0.12354 -1.453007,-0.50766 -0.573328,-1.07127 -2.921926,-0.89421 -2.921926,0.22029 0,0.53865 0.570572,0.81325 3.119406,1.50129 1.862622,0.5028 2.701428,1.29119 2.701428,2.53907 0,1.1759 -0.726308,2.33125 -1.728867,2.75015 -1.18735,0.4961 -4.261657,0.4761 -5.296175,-0.0345 z m 12.808672,0.28509 c -0.08239,-0.0824 0.267859,-1.24873 0.778325,-2.59188 0.510463,-1.34315 1.599739,-4.22803 2.420612,-6.41084 l 1.492498,-3.96875 1.463818,-0.078 1.463815,-0.078 0.431642,1.00404 c 1.194972,2.7796 4.40572,11.79638 4.275534,12.00703 -0.224068,0.36254 -2.394405,0.29117 -2.704319,-0.0889 -0.14831,-0.1819 -0.41986,-0.83674 -0.603444,-1.45521 l -0.33379,-1.12448 h -2.478209 c -2.465575,0 -2.479503,0.004 -2.732045,0.72761 -0.623173,1.78628 -0.884164,2.0468 -2.132724,2.12886 -0.655556,0.0431 -1.259327,0.0109 -1.341713,-0.0715 z m 7.71321,-5.23241 c 0.0053,-0.5672 -1.408642,-4.43733 -1.564296,-4.28168 -0.289118,0.28912 -1.573771,4.19853 -1.447041,4.40359 0.223158,0.36107 3.007876,0.24834 3.011337,-0.12191 z m 5.994133,5.18142 c -0.09701,-0.097 -0.17639,-3.07357 -0.17639,-6.61458 v -6.4382 h 1.190625 1.190625 v 6.61459 6.61458 h -1.014236 c -0.557831,0 -1.093612,-0.0794 -1.190624,-0.17639 z m 6.228286,-0.26511 c -2.210787,-1.08959 -3.056329,-4.94204 -1.575734,-7.17936 1.84346,-2.78566 6.040559,-2.93026 7.80184,-0.26878 0.4103,0.62 0.727178,1.54244 0.803801,2.33989 l 0.126492,1.31642 h -3.325338 c -1.864416,0 -3.39507,0.11282 -3.48406,0.25681 -0.21976,0.35558 0.543499,1.75982 1.065384,1.96008 0.873694,0.33527 2.080692,0.15498 2.670218,-0.39885 0.621294,-0.58368 2.498439,-0.83145 2.656699,-0.35066 0.171606,0.52131 -1.018706,2.01824 -1.896483,2.385 -1.215564,0.50789 -3.753829,0.47616 -4.842819,-0.0606 z m 4.44324,-5.78823 c 0,-0.58427 -1.202338,-1.70777 -1.827606,-1.70777 -0.849421,0 -1.796384,0.53962 -2.094267,1.1934 -0.151834,0.33324 -0.20465,0.6773 -0.117372,0.76458 0.08728,0.0873 1.031814,0.15869 2.098968,0.15869 1.573665,0 1.940277,-0.0773 1.940277,-0.4089 z m 5.666962,5.97339 c -0.754528,-0.30524 -1.962795,-1.78867 -1.962795,-2.40979 0,-0.42557 0.191984,-0.50887 1.172795,-0.50887 0.908327,0 1.207797,0.11028 1.327997,0.48901 0.43199,1.36107 3.58462,1.41669 3.58462,0.0632 0,-0.71161 -0.44997,-0.98429 -2.61366,-1.58388 -2.695515,-0.74697 -3.196623,-1.16984 -3.203118,-2.703 -0.0085,-2.01124 1.568791,-3.0003 4.518908,-2.8336 1.77988,0.10057 1.93735,0.16194 2.78288,1.08457 1.25093,1.36501 1.18453,1.77949 -0.28507,1.77949 -0.89385,0 -1.24743,-0.12354 -1.45301,-0.50766 -0.38931,-0.72742 -1.73259,-0.96195 -2.5273,-0.44123 -1.18649,0.77741 -0.5573,1.27684 2.72478,2.16281 1.101,0.2972 1.83971,0.67236 2.18281,1.10855 1.02011,1.29685 0.43676,3.36484 -1.16336,4.12415 -0.97893,0.46453 -4.10598,0.57286 -5.086477,0.17621 z M 30.024182,433.88257 v -1.07283 l 1.256771,0.0806 c 1.244656,0.0799 1.257562,0.0902 1.33889,1.07283 l 0.08212,0.99219 h -1.338887 -1.33889 z m 60.382107,-0.58914 c -0.759013,-0.76855 -1.380024,-1.48293 -1.380024,-1.5875 0,-0.10456 0.593817,-0.19011 1.319598,-0.19011 1.237711,0 1.35826,0.0616 1.942669,0.99219 1.352735,2.1541 1.35768,2.18281 0.376023,2.18281 -0.709543,0 -1.143325,-0.26842 -2.258266,-1.39739 z M 28.436682,396.98769 c 0,-14.18828 0.03466,-25.79687 0.07702,-25.79687 0.04236,0 5.886116,5.79415 12.986125,12.87589 l 12.909108,12.87588 12.943041,-12.94102 12.943041,-12.94102 v 25.86201 25.86201 H 54.365848 28.436682 Z m -51.85969,25.06876 c -7.93e-4,-0.32714 -0.0019,-11.9355 -0.0027,-25.79636 l -0.0013,-25.20156 25.6673083,-0.0675 c 14.1169757,-0.0371 25.6672637,0.0227 25.6672637,0.13281 0,0.11014 -11.549063,11.74886 -25.6645834,25.86381 -19.2082576,19.20749 -25.6649246,25.51393 -25.6659406,25.06876 z M 106.48876,409.73179 V 396.8554 H 93.656473 c -7.05776,0 -12.832292,-0.0909 -12.832292,-0.20212 0,-0.11117 5.747631,-5.94523 12.772512,-12.96458 L 106.3692,370.92624 h 25.85666 c 14.22116,0 25.85665,0.0936 25.85665,0.20801 0,0.1144 -11.51929,11.65338 -25.59843,25.64216 -14.07914,13.98879 -25.68774,25.52363 -25.79688,25.63297 -0.10914,0.10934 -0.19844,-5.59558 -0.19844,-12.67759 z"
         id="path9492"
         inkscape:connector-curvature="0"
         sodipodi:nodetypes="ccscccscscsccccccccccsccccccccccccccccsccccccscccsccccssccssccccscsccssccsccsscssscccssssccccccscccccccccccccscsccccccsccccccccsccccccscccssscccsssssccccscsccccccscsccccscccccscsccccssscssssccscccccsssscccccccsssssccccscccccssccccscccssscccsssccsscccscscssccsssccsssccscccccscccccccccccccscscccccccccsccccsscccscccccscccccccccccscccscscccccccccsccscscscccscccccccccscscccscccssccccccccccsccsccsscccssssscsscsssssscssscccccsccccccccscccccccccscccccsccccccscccccccssccssssscsccccscccccsscccssccccsscsccssccccsccccsccccccccscscccccc" />
      <path
         style="fill:#282828;stroke-width:0.26458332"
         d="m -6.1559583,462.45675 c -1.5957153,-0.33794 -2.4490256,-1.64477 -2.4490256,-3.75062 0,-3.29225 3.2684005,-4.96991 5.6086427,-2.87891 0.688795,0.61544 0.8425867,0.97444 0.9446445,2.20513 0.2680626,3.23248 -1.3739945,5.00262 -4.1042616,4.4244 z m 1.9824303,-1.18499 c 0.709041,-0.49664 1.2260209,-2.27819 1.0042075,-3.46057 -0.3064669,-1.6336 -2.1174101,-2.45096 -3.3027435,-1.49069 -1.7439216,1.41281 -0.8792209,5.35782 1.1743717,5.35782 0.2990426,0 0.804918,-0.18296 1.1241643,-0.40656 z m 8.3953481,1.04997 c -0.9765083,-0.33571 -1.158113,-0.49623 -1.7609608,-1.55654 -0.4380654,-0.77048 -0.3543671,-3.08264 0.1466559,-4.05151 0.6904116,-1.33511 1.6157257,-1.77102 3.5644798,-1.67923 0.341974,0.0161 1.0265833,0.4341 1.5213542,0.92887 0.7305092,0.73051 0.8995833,1.10347 0.8995833,1.98437 v 1.08479 H 6.0710882 c -2.0033059,0 -2.5533217,0.082 -2.6749269,0.39892 -0.201922,0.5262 0.5634223,1.66739 1.3623846,2.03142 0.7704296,0.35103 2.1241967,-0.11921 2.5308903,-0.87912 0.2817178,-0.5264 0.9068938,-0.65596 1.1632962,-0.2411 0.085585,0.13849 -0.1752785,0.62106 -0.5796994,1.07238 -0.9263883,1.03384 -2.2937681,1.37341 -3.6512129,0.90675 z m 3.1682345,-4.32775 c 0.2785772,-0.45075 -0.4450291,-1.56815 -1.224616,-1.89107 -0.5700209,-0.23611 -0.9372335,-0.24392 -1.4068927,-0.0299 -0.7580207,0.34538 -1.5725219,1.50065 -1.3321797,1.88953 0.2108755,0.34121 3.754874,0.36934 3.9636884,0.0315 z m 30.9242934,4.43018 c -0.460875,-0.12124 -1.145485,-0.58591 -1.521354,-1.03261 -0.567878,-0.67488 -0.683395,-1.0793 -0.683395,-2.39251 0,-0.89509 0.174029,-1.91687 0.401354,-2.35647 0.781349,-1.51096 3.030196,-2.08238 4.583716,-1.16469 0.934601,0.55208 1.36493,1.38473 1.36493,2.64101 v 0.91359 h -2.497926 c -1.37386,0 -2.547006,0.0893 -2.606993,0.19844 -0.05998,0.10914 -0.0079,0.57079 0.115835,1.02589 0.414962,1.52674 2.689712,1.82095 3.579497,0.46297 0.425141,-0.64885 0.996551,-0.81863 1.269387,-0.37718 0.270814,0.43819 -1.273834,1.88388 -2.24105,2.09748 -0.509323,0.11248 -1.303123,0.10532 -1.764001,-0.0159 z m 2.949823,-4.44224 c 0.0873,-0.14125 -0.02267,-0.60758 -0.244369,-1.0363 -0.817848,-1.58154 -3.329453,-1.1616 -3.538714,0.59168 -0.08356,0.70009 -0.08017,0.70143 1.770321,0.70143 1.019723,0 1.925466,-0.11556 2.012762,-0.25681 z m 4.21504,4.51335 c -1.148786,-0.28598 -1.342744,-0.4445 -1.661056,-1.35762 -0.411504,-1.18044 0.277423,-1.33414 1.260914,-0.2813 0.865621,0.92665 1.924915,1.07759 2.877907,0.41009 1.183682,-0.82909 0.477012,-1.64411 -1.925502,-2.22076 -1.595128,-0.38286 -2.248959,-0.91995 -2.248959,-1.84742 0,-1.64992 1.957213,-2.75473 3.801711,-2.14599 0.948534,0.31304 1.754539,1.1354 1.754539,1.79013 0,0.54989 -0.72069,0.38701 -1.431155,-0.32346 -0.812115,-0.81211 -2.003851,-0.86825 -2.675543,-0.12604 -0.655513,0.72433 -0.324173,1.02164 2.057135,1.84583 2.071114,0.71684 2.56858,1.33149 2.215663,2.73763 -0.30943,1.23286 -2.243436,1.96258 -4.025654,1.51891 z m -69.276527,-0.61852 c -0.06664,-0.32742 -0.09868,-2.55984 -0.07119,-4.96093 l 0.04998,-4.36563 3.63802,-0.0736 c 3.483473,-0.0705 3.638021,-0.0512 3.638021,0.45436 0,0.49184 -0.203636,0.53308 -2.976562,0.60277 l -2.976563,0.0748 -0.07935,1.52135 -0.07935,1.52135 h 2.79133 c 2.614938,0 2.791328,0.0334 2.791328,0.52917 0,0.49557 -0.17639,0.52917 -2.778125,0.52917 H -22.6279 v 1.71979 1.71979 h 3.042708 3.042708 v 0.66146 0.66146 h -3.566834 c -3.48665,0 -3.569558,-0.0134 -3.687998,-0.59532 z m 9.275947,-0.10156 c -2.030026,-2.03002 -1.112753,-6.19889 1.508707,-6.85683 1.372061,-0.34437 3.0986944,0.6144 3.478083,1.93131 0.1429253,0.49611 0.068765,0.59531 -0.4450423,0.59531 -0.3839657,0 -0.7150737,-0.22316 -0.8777257,-0.59157 -0.143648,-0.32537 -0.588841,-0.70563 -0.989315,-0.84502 -0.583829,-0.2032 -0.872233,-0.14613 -1.455208,0.28798 -1.459857,1.08707 -1.409835,4.39648 0.07669,5.07378 0.992939,0.45242 1.162212,0.4017 2.148115,-0.64367 0.952855,-1.01032 1.7433054,-1.07358 1.4938219,-0.11955 -0.4711599,1.80172 -3.5712529,2.53513 -4.9381279,1.16826 z m 14.30036931,0.526 c -0.10004689,-0.10005 -0.18190104,-2.36471 -0.18190104,-5.0326 0,-4.69194 0.0175075,-4.85069 0.53500602,-4.85069 0.52041424,0 0.53304015,0.13469 0.46302082,4.93911 -0.0676725,4.64311 -0.21636831,5.54394 -0.8161258,4.94418 z m 14.63476569,-4.8378 v -5.04549 h 0.90102 c 0.888645,0 0.911809,0.03 1.686994,2.18281 0.432286,1.20055 1.062294,3.04602 1.400019,4.10104 0.337722,1.05503 0.682783,1.91823 0.766799,1.91823 0.08402,0 0.753007,-1.8157 1.486641,-4.03489 l 1.333883,-4.0349 0.980721,-0.0825 0.980718,-0.0825 -0.07204,4.97727 c -0.06914,4.77685 -0.09335,4.97726 -0.60121,4.97726 -0.499485,0 -0.536585,-0.22049 -0.661458,-3.93107 l -0.132292,-3.93107 -1.327936,3.93107 c -1.233635,3.65191 -1.374552,3.93107 -1.984374,3.93107 -0.608926,0 -0.752195,-0.28099 -1.979356,-3.88196 -0.727604,-2.13507 -1.389952,-3.94835 -1.471885,-4.02952 -0.08193,-0.0812 -0.141465,1.66571 -0.132292,3.88195 0.01648,3.98309 0.0098,4.0305 -0.578636,4.11407 l -0.595312,0.0845 z m 11.500019,4.68283 c -0.07703,-0.20073 -0.106434,-1.84664 -0.06535,-3.65758 0.07014,-3.09132 0.107053,-3.29261 0.603869,-3.29261 0.503008,0 0.529167,0.17639 0.529167,3.56825 0,3.19032 -0.04913,3.57771 -0.46382,3.65757 -0.255103,0.0491 -0.526844,-0.0749 -0.603869,-0.27563 z m 2.90291,-0.0196 c -0.0729,-0.18997 -0.09893,-1.82563 -0.05784,-3.63479 0.06558,-2.88757 0.131265,-3.30024 0.537723,-3.37817 0.28239,-0.0541 0.463021,0.0736 0.463021,0.32751 0,0.51978 0.124761,0.52009 0.915035,0.002 1.170477,-0.76692 3.091283,-0.50329 3.6288,0.49806 0.390009,0.72656 0.598805,5.74187 0.259712,6.23835 -0.138723,0.2031 -0.442836,0.29613 -0.675804,0.20674 -0.34867,-0.1339 -0.423577,-0.62306 -0.423577,-2.76622 0,-3.03917 -0.251735,-3.59439 -1.612151,-3.55571 -1.433502,0.0408 -1.827432,0.76769 -1.827432,3.37222 0,1.2089 -0.07227,2.38634 -0.160599,2.61652 -0.194159,0.50597 -0.862862,0.55267 -1.046888,0.0731 z m 28.645107,0.17817 c -0.102045,-0.10205 -0.185537,-2.13023 -0.185537,-4.50707 v -4.32153 h -1.719792 c -1.543401,0 -1.719791,-0.0543 -1.719791,-0.52916 0,-0.50641 0.17639,-0.52917 4.101041,-0.52917 3.924652,0 4.101042,0.0228 4.101042,0.52917 0,0.47469 -0.17639,0.52916 -1.713394,0.52916 h -1.713394 l -0.07254,4.4284 c -0.06143,3.75006 -0.135314,4.44044 -0.48232,4.50706 -0.225377,0.0433 -0.493268,-0.005 -0.595312,-0.10687 z m 4.365127,-0.73915 c -0.93367,-1.06339 -1.224545,-2.13691 -0.976619,-3.60436 0.231584,-1.37074 1.615588,-2.88573 2.674905,-2.92805 2.523916,-0.10085 3.805217,0.93815 3.805217,3.08562 v 0.91359 h -2.645834 c -1.64239,0 -2.645833,0.10357 -2.645833,0.27309 0,0.15019 0.167553,0.67408 0.372338,1.16421 0.612084,1.46492 2.540687,1.52379 3.545268,0.10821 0.190153,-0.26794 0.510548,-0.48717 0.711991,-0.48717 0.756917,0 0.67164,0.57251 -0.217757,1.46191 -0.826381,0.82638 -1.066385,0.91934 -2.373598,0.91934 -1.324743,0 -1.525133,-0.0807 -2.250078,-0.90639 z m 4.281128,-3.54016 c 0.232317,-0.37589 -0.481971,-1.47766 -1.228847,-1.89545 -0.649714,-0.36345 -0.797843,-0.36345 -1.447557,0 -0.746876,0.41779 -1.461164,1.51956 -1.228846,1.89545 0.07247,0.11727 0.951156,0.21321 1.952625,0.21321 1.001469,0 1.88015,-0.0959 1.952625,-0.21321 z m 2.809875,-0.56114 c 0,-4.88845 0.01675,-5.04648 0.535006,-5.04648 0.520475,0 0.533048,0.13462 0.46302,4.95752 -0.06502,4.47779 -0.116789,4.96613 -0.535006,5.04648 -0.427897,0.0822 -0.46302,-0.29384 -0.46302,-4.95752 z m 3.502242,4.11259 c -0.944044,-1.07521 -1.244553,-2.42595 -0.8586,-3.85926 0.379881,-1.41078 1.253797,-2.37209 2.383441,-2.6218 2.047769,-0.45266 3.670824,0.68282 3.901511,2.72947 l 0.136057,1.2071 h -2.680242 c -2.952621,0 -3.063949,0.078 -2.278555,1.59681 0.680098,1.31517 2.574126,1.29972 3.504501,-0.0286 0.196432,-0.28045 0.521965,-0.5099 0.723408,-0.5099 0.756918,0 0.67164,0.57251 -0.217757,1.46191 -0.826381,0.82638 -1.066385,0.91934 -2.373598,0.91934 -1.321173,0 -1.526178,-0.0819 -2.240166,-0.8951 z m 4.310157,-3.61446 c 0.241988,-0.39154 -0.576228,-1.54509 -1.344102,-1.89496 -0.476154,-0.21695 -0.818774,-0.21695 -1.294929,0 -0.767873,0.34987 -1.586089,1.50342 -1.344101,1.89496 0.09389,0.15192 0.990097,0.27622 1.991566,0.27622 1.001469,0 1.897674,-0.1243 1.991566,-0.27622 z m 3.288276,3.70315 c -0.831231,-0.88984 -1.219509,-2.5661 -0.91526,-3.95134 0.246867,-1.12399 1.56078,-2.57339 2.524758,-2.78511 1.55258,-0.34101 3.42941,0.77843 3.42941,2.04548 0,0.70147 -0.924084,0.57852 -1.26432,-0.16822 -0.370168,-0.81243 -1.214583,-1.08233 -2.160447,-0.69054 -0.905669,0.37514 -1.338982,1.2622 -1.333833,2.73056 0.0051,1.44175 0.475969,2.33292 1.39364,2.63737 0.854855,0.28361 2.01777,-0.31703 2.237009,-1.15541 0.07223,-0.27622 0.355574,-0.50222 0.629642,-0.50222 0.761365,0 0.617395,0.97995 -0.27509,1.87244 -0.655568,0.65557 -0.982027,0.7734 -2.142804,0.7734 -1.18518,0 -1.470748,-0.10849 -2.122705,-0.80641 z m 7.359362,0.28621 c -0.961377,-0.75622 -1.346142,-1.90264 -1.20595,-3.59315 0.14941,-1.80168 0.813567,-2.76775 2.252446,-3.27634 2.222349,-0.78551 4.305966,0.90144 4.305966,3.48622 0,1.47375 -0.589237,2.93646 -1.41628,3.51575 -0.829413,0.58094 -3.127544,0.50359 -3.936182,-0.13248 z m 3.337573,-0.88044 c 1.299959,-1.29996 1.000972,-4.31423 -0.495565,-4.9961 -1.624435,-0.74014 -3.184392,0.95661 -2.953967,3.21301 0.212913,2.08492 2.147631,3.08499 3.449532,1.78309 z m 3.460742,1.07479 c -0.07703,-0.20073 -0.106434,-1.84664 -0.06535,-3.65758 0.07231,-3.18711 0.09378,-3.29532 0.670015,-3.37716 0.415227,-0.059 0.595313,0.0503 0.595313,0.36116 0,0.41784 0.04251,0.41785 0.67996,1.8e-4 0.876361,-0.57422 2.030831,-0.60075 2.847814,-0.0654 0.599183,0.3926 0.718769,0.38632 1.646004,-0.0864 1.12399,-0.57305 2.07282,-0.47309 2.88898,0.30435 0.46103,0.43916 0.52295,0.86113 0.52916,3.6059 0.007,2.9345 -0.0226,3.10855 -0.52212,3.10855 -0.49054,0 -0.53472,-0.20172 -0.60514,-2.76285 -0.0418,-1.51956 -0.20518,-2.91855 -0.36312,-3.10885 -0.15794,-0.19031 -0.68511,-0.34601 -1.1715,-0.34601 -1.21808,0 -1.517802,0.65711 -1.688342,3.7015 -0.118454,2.11457 -0.213735,2.5248 -0.603676,2.59909 -0.418359,0.0797 -0.46302,-0.1938 -0.46302,-2.83551 0,-2.78217 -0.03029,-2.94357 -0.625745,-3.33372 -0.676521,-0.44328 -1.760329,-0.22203 -2.192825,0.44763 -0.123277,0.19088 -0.28367,1.53647 -0.35643,2.9902 -0.11244,2.24653 -0.201891,2.65641 -0.596112,2.73153 -0.255103,0.0486 -0.526844,-0.0759 -0.603869,-0.27657 z m -42.985435,-3.6429 c 0,-0.4749 0.176389,-0.52917 1.719791,-0.52917 1.543402,0 1.719792,0.0543 1.719792,0.52917 0,0.47489 -0.17639,0.52916 -1.719792,0.52916 -1.543402,0 -1.719791,-0.0543 -1.719791,-0.52916 z m 12.357853,-5.35782 c 0.353912,-0.60827 0.728793,-0.88537 1.281126,-0.94695 l 0.780812,-0.0871 -0.911799,0.94695 c -1.194403,1.24047 -1.850102,1.2901 -1.150139,0.0871 z m 10.583334,0 c 0.353912,-0.60827 0.728792,-0.88537 1.281125,-0.94695 l 0.780812,-0.0871 -0.911799,0.94695 c -1.194403,1.24047 -1.850102,1.2901 -1.150138,0.0871 z m -48.155651,0.42807 c -0.102044,-0.10204 -0.185536,-0.40381 -0.185536,-0.6706 0,-0.34452 0.19699,-0.48507 0.67986,-0.48507 0.552897,0 0.664072,0.11067 0.595312,0.59261 -0.08368,0.58654 -0.731435,0.92126 -1.089636,0.56306 z m -47.016785,-2.3716 c 0,-0.4637 1.166159,-1.69449 1.605515,-1.69449 0.702945,0 0.641085,0.30568 -0.230931,1.14113 -0.682866,0.65423 -1.374584,0.93269 -1.374584,0.55336 z m 68.659374,-5.50757 c -2.395514,-1.06469 -3.300622,-4.32137 -1.937287,-6.97059 1.161581,-2.25717 4.104817,-3.11993 6.346105,-1.86026 1.317908,0.74071 2.05055,1.92112 2.252924,3.62986 l 0.15884,1.34116 h -3.50512 -3.505121 l 0.172257,0.7276 c 0.377812,1.59585 2.539645,2.21503 3.926057,1.12448 0.62062,-0.48818 2.573636,-0.76285 2.573636,-0.36196 0,0.53953 -1.19902,1.95593 -1.962385,2.31817 -1.078037,0.51156 -3.42468,0.53832 -4.519906,0.0515 z m 4.101041,-5.8933 c 0,-0.77486 -1.076153,-1.6707 -2.006975,-1.6707 -0.631492,0 -1.036291,0.21379 -1.541381,0.81405 -0.376738,0.44773 -0.684977,0.92398 -0.684977,1.05834 0,0.13435 0.9525,0.24428 2.116667,0.24428 1.808652,0 2.116666,-0.0649 2.116666,-0.44597 z m 5.688542,5.89572 c -0.998763,-0.44086 -1.627002,-1.14211 -1.860153,-2.07632 -0.178382,-0.71476 -0.160068,-0.7276 1.037719,-0.7276 0.670621,0 1.219309,0.11906 1.219309,0.26458 0,0.55445 1.085969,1.32292 1.869477,1.32292 1.140679,0 1.834689,-0.44176 1.834689,-1.16783 0,-0.67544 -0.379042,-0.88055 -2.934869,-1.58809 -2.08683,-0.5777 -2.885964,-1.26888 -2.885964,-2.49608 0,-1.91089 1.446268,-2.95008 4.105683,-2.95008 1.658093,0 2.728139,0.44856 3.543871,1.4856 0.84927,1.07967 0.718071,1.42481 -0.54161,1.42481 -0.82722,0 -1.243687,-0.16136 -1.707158,-0.66145 -0.732935,-0.79085 -1.949844,-0.87575 -2.579529,-0.17996 -0.68694,0.75907 -0.06424,1.25251 2.408828,1.90884 1.59303,0.42277 2.329921,0.76172 2.711979,1.24743 1.025861,1.30417 0.447077,3.3704 -1.157375,4.13176 -1.106537,0.52508 -3.936775,0.55943 -5.064897,0.0615 z m 32.940759,0.0738 c -1.704271,-0.67958 -2.698885,-2.32394 -2.698885,-4.46195 0,-2.0219 0.753375,-3.47543 2.258529,-4.35751 3.214925,-1.88407 7.054805,0.37694 7.054805,4.15403 v 0.72935 h -3.468267 -3.468267 l 0.172257,0.7276 c 0.09474,0.40018 0.418497,0.93597 0.719455,1.19063 0.760616,0.64361 2.460519,0.60774 3.134405,-0.0661 0.352777,-0.35278 0.881943,-0.52917 1.5875,-0.52917 0.582083,0 1.058333,0.0752 1.058333,0.16721 0,0.53953 -1.19902,1.95593 -1.962385,2.31817 -0.990915,0.47022 -3.355986,0.53911 -4.38748,0.12779 z m 3.968615,-5.93248 c 0,-0.67892 -1.232971,-1.70829 -2.038495,-1.70188 -0.880618,0.007 -1.80481,0.68948 -2.052199,1.51546 -0.17458,0.58291 -0.133794,0.59532 1.956197,0.59532 1.748843,0 2.134497,-0.0739 2.134497,-0.4089 z m 5.688539,5.87215 c -1.004562,-0.46051 -1.628452,-1.16143 -1.86015,-2.08982 -0.178382,-0.71476 -0.160068,-0.7276 1.037719,-0.7276 0.670621,0 1.219311,0.11906 1.219311,0.26458 0,0.14552 0.23812,0.50271 0.52916,0.79375 0.91322,0.91322 3.175,0.5527 3.175,-0.50608 0,-0.7207 -0.52417,-1.04055 -2.68386,-1.63773 -2.366547,-0.65437 -3.136969,-1.29437 -3.136969,-2.60594 0,-1.84674 1.461445,-2.92316 3.968749,-2.92316 1.65058,0 2.90581,0.50035 3.65974,1.45883 0.87059,1.10677 0.74694,1.45158 -0.52054,1.45158 -0.82722,0 -1.24369,-0.16136 -1.70716,-0.66145 -0.70871,-0.76471 -1.9661,-0.88335 -2.60376,-0.24569 -0.82976,0.82976 -0.37496,1.25522 1.98469,1.85668 2.94776,0.75135 3.68495,1.35265 3.68495,3.0057 0,0.55864 -0.28406,1.125 -0.90295,1.80033 -0.87908,0.95923 -0.95779,0.9872 -2.97657,1.05758 -1.34171,0.0468 -2.35377,-0.0561 -2.86736,-0.29156 z m -123.789599,-0.0921 c -0.213001,-0.213 -0.201859,-11.85342 0.01188,-12.41042 0.09445,-0.24613 0.572881,-0.36908 1.436241,-0.36908 h 1.294609 v 6.4823 6.48229 h -1.278819 c -0.703352,0 -1.362109,-0.0833 -1.46391,-0.18509 z m 5.18542,-6.23106 0.07085,-6.41614 1.926815,-0.0779 1.926815,-0.0779 0.351652,0.87167 c 0.193408,0.47941 0.874155,2.44538 1.512769,4.36882 0.638614,1.92345 1.240189,3.50103 1.336836,3.50573 0.09665,0.005 0.811022,-1.9262 1.5875001,-4.29091 l 1.4117796,-4.29948 h 1.984375 1.984375 l 0.07085,6.41614 0.07085,6.41615 H -5.689863 -7.017484 v -4.36563 c 0,-2.73402 -0.098885,-4.36562 -0.2645833,-4.36562 -0.1455208,0 -0.2675414,0.14883 -0.2711556,0.33073 -0.00362,0.1819 -0.6377596,2.11666 -1.4092131,4.29948 l -1.402644,3.96875 -1.111329,0.0817 c -1.300197,0.0956 -1.139103,0.37497 -2.978917,-5.16637 -0.638614,-1.92345 -1.250413,-3.50102 -1.359554,-3.50573 -0.10914,-0.005 -0.198437,1.95597 -0.198437,4.35706 v 4.36563 h -1.327621 -1.327621 z m 19.45717238,1.19063 -0.0717391,-5.22552 -1.91822918,-0.0777 -1.9182291,-0.0777 v -1.17903 -1.17904 h 5.2916666 5.2916666 v 1.17904 1.17903 l -1.9182292,0.0777 -1.9182291,0.0777 -0.071739,5.22552 -0.071739,5.22552 h -1.31173 -1.31173008 z m 12.82199362,-1.19063 0.07085,-6.41614 h 1.964577 1.964578 l 1.460884,4.29948 c 0.803487,2.36471 1.53584,4.29947 1.627452,4.29947 0.09161,0 0.740561,-1.8157 1.442104,-4.03489 0.701545,-2.21919 1.391663,-4.18373 1.533596,-4.36563 0.161917,-0.20751 0.936019,-0.33073 2.077746,-0.33073 h 1.819688 v 6.4823 6.48229 H 26.308617 24.9743 l 0.03609,-4.25274 c 0.01984,-2.339 -0.01638,-4.30521 -0.08051,-4.36933 -0.06413,-0.0641 -0.769604,1.81983 -1.567723,4.18658 l -1.451125,4.3032 -1.172261,0.0781 -1.172263,0.0781 -1.426482,-4.17912 c -0.784564,-2.29851 -1.527212,-4.29223 -1.650331,-4.43047 -0.123179,-0.13831 -0.223853,1.73581 -0.223853,4.16719 v 4.41854 H 14.938221 13.6106 Z m 16.342725,1.78594 v -4.6592 l 1.256771,0.0806 1.256771,0.0806 v 4.49792 4.49792 l -1.256771,0.0806 -1.256771,0.0806 z m 4.497917,0 v -4.63021 h 1.215395 c 0.991338,0 1.240809,0.0972 1.353251,0.52716 0.132969,0.50847 0.165643,0.50378 0.921573,-0.13229 1.365046,-1.14861 3.918807,-0.81646 4.906005,0.6381 0.378208,0.55726 0.483412,1.39806 0.557683,4.45713 l 0.09154,3.77032 H 42.21982 40.872096 l -0.004,-3.24115 c -0.0021,-1.78263 -0.09153,-3.37215 -0.198438,-3.53227 -0.462854,-0.69318 -1.407176,-0.95452 -2.225024,-0.61575 -1.081797,0.44809 -1.276657,1.13433 -1.276657,4.49598 v 2.89319 H 35.84506 34.522144 Z m 35.458738,4.4456 c 0.0025,-0.11675 1.059053,-3.01024 2.347862,-6.42998 l 2.343293,-6.2177 1.455597,-0.0784 c 1.200399,-0.0646 1.487848,0.005 1.639538,0.39688 0.101167,0.26138 1.118286,2.97555 2.260267,6.03149 1.141981,3.05593 2.158357,5.76461 2.258616,6.01927 0.160165,0.40683 0.0063,0.46302 -1.268085,0.46302 h -1.450374 l -0.498679,-1.38907 -0.498681,-1.38906 -2.422795,-0.0758 -2.422792,-0.0758 -0.520459,1.3987 -0.52046,1.3987 -1.353709,0.08 c -0.744542,0.044 -1.351653,-0.0156 -1.349139,-0.13229 z m 7.668344,-4.90772 c 0,-0.54927 -1.353441,-4.43302 -1.543081,-4.42793 -0.142566,0.004 -1.221835,3.01734 -1.585172,4.42608 -0.0616,0.23883 0.364268,0.33168 1.521354,0.33168 1.106787,0 1.606899,-0.10265 1.606899,-0.32983 z m 5.820834,-1.38996 v -6.4823 h 1.190625 1.190625 v 6.4823 6.48229 H 84.66064 83.470015 Z m -53.445833,-5.40947 v -1.07283 h 1.190625 c 0.654844,0 1.202619,0.0893 1.217274,0.19844 0.224716,1.67327 0.157274,1.78263 -1.151128,1.86658 l -1.256771,0.0806 z m 60.477749,-0.63833 c -0.666094,-0.77967 -1.211083,-1.49405 -1.211083,-1.5875 0,-0.0934 0.526071,-0.16991 1.169046,-0.16991 1.067696,0 1.221131,0.086 1.769853,0.99219 0.330446,0.5457 0.77057,1.26007 0.978051,1.5875 0.365172,0.57626 0.347297,0.59531 -0.558771,0.59531 -0.804466,0 -1.106215,-0.19923 -2.147096,-1.41759 z"
         id="path9490"
         inkscape:connector-curvature="0"
         sodipodi:nodetypes="cscsccccsccccccscscsccccccccccccsccscsccccccccccscccccsscsccccccsccsccccssscccccccscccccscccccscccssscccsccsscccssscssscccccccssccccccsccccscsccccscssssscsccccccscssccscscccccscssscscccscsccscsccccccsccccscscscscsccscsccscsscccscccccsccsscsccscccssssscccccccccccssccsscscscscccscscccsscsssccsssscsscsccccccccsssccccccsssccsccsscssssscsscscscscccccscccscccccccccscccccccssccccccscccccccccccccccccccccccccssscscccccccccccscscccccccccccccccsccssccccccscccccccccccscccccccsccsccsscccccccccccsccccsssccss" />
    </g>
    <path
       style="fill:none;stroke:#000000;stroke-width:0.26458332px;stroke-linecap:butt;stroke-linejoin:miter;stroke-opacity:1"
       d="m 118.93494,289.78373 h 81.78447"
       id="path9496"
       inkscape:connector-curvature="0" />
    <g
       id="g9509"
       transform="matrix(0.31581598,0,0,0.31581598,102.94081,176.81032)">
      <path
         style="fill:#010101;stroke-width:0.26458332"
         d="m 253.16837,351.25108 c -0.63108,-0.72581 -1.63736,-2.98838 -2.10976,-4.74369 -0.34658,-1.2878 -1.75527,-3.26665 -2.53703,-3.56388 -0.31364,-0.11924 -0.89292,-0.15512 -1.2873,-0.0797 -0.78525,0.15011 -0.86096,0.34649 -1.09961,2.85242 -0.0831,0.87313 -0.19849,1.82563 -0.2563,2.11667 -0.0578,0.29104 -0.11504,0.79556 -0.12717,1.12116 -0.0307,0.82343 -1.86834,1.92843 -3.92499,2.36013 -1.4983,0.3145 -1.77226,0.30005 -2.91042,-0.15349 -1.90087,-0.75746 -3.70556,-1.83954 -4.27467,-2.56305 -0.58692,-0.74614 -1.00156,-2.73244 -0.62215,-2.9803 0.31601,-0.20644 1.65602,-4.48148 1.65602,-5.28319 0,-1.52706 1.01284,-2.08789 3.96875,-2.1976 2.33321,-0.0866 2.5736,1e-4 4.21561,1.52031 l 1.59993,1.48126 0.46567,-0.87485 c 0.25612,-0.48117 0.79147,-1.2148 1.18967,-1.6303 0.66096,-0.68968 0.83375,-0.74043 1.98437,-0.58285 0.69321,0.0949 1.79616,0.4299 2.451,0.74436 1.0357,0.49735 1.3186,0.82994 2.17413,2.55612 0.80344,1.62107 1.03354,2.45476 1.25677,4.55363 0.36043,3.38876 0.34545,5.32251 -0.0442,5.7122 -0.50235,0.50234 -1.12586,0.37352 -1.76829,-0.36533 z m -11.60226,-3.94738 c 0.28429,-1.34238 0.042,-3.01065 -0.54308,-3.7399 -0.56518,-0.7044 -2.54993,-1.94864 -3.10838,-1.94864 -0.45805,0 -1.67299,2.4853 -1.90226,3.89125 -0.12699,0.77878 -0.0541,0.88684 0.88659,1.31422 0.56373,0.25612 1.32262,0.66404 1.68643,0.9065 0.76452,0.50952 1.50207,0.73195 2.23818,0.67501 0.37925,-0.0293 0.57855,-0.32417 0.74252,-1.09844 z m 44.33658,4.08736 c -0.5741,-0.42866 -0.76413,-0.88037 -1.02607,-2.43902 -0.41717,-2.48227 -1.33194,-5.26222 -2.71391,-8.24744 -1.28681,-2.77964 -1.90122,-3.58736 -2.72884,-3.58736 -0.63822,0 -3.78637,-1.11745 -6.22452,-2.20942 -1.72853,-0.77415 -5.16351,-3.30668 -6.74533,-4.97317 -1.99234,-2.09899 -4.58576,-6.45003 -4.59269,-7.70526 -0.002,-0.37666 0.13949,-0.43412 0.72501,-0.29425 0.96211,0.22984 1.34546,0.55355 2.16186,1.82556 1.49955,2.33639 3.79912,5.15704 4.61587,5.66181 0.47512,0.29365 1.08625,0.77964 1.35807,1.07999 0.74508,0.8233 3.16344,2.12631 4.71119,2.53839 1.4724,0.39201 2.82958,0.48489 2.82958,0.19364 0,-0.0982 -0.30459,-1.06101 -0.67686,-2.13958 -0.75639,-2.19145 -0.76496,-3.10583 -0.0291,-3.10583 0.35011,0 0.87213,0.76917 1.88043,2.77073 0.76767,1.52391 1.68066,2.97915 2.02887,3.23388 0.48062,0.35158 1.36601,0.49842 3.67582,0.60962 1.67349,0.0806 3.57849,0.20082 4.23334,0.26723 3.47642,0.35256 4.25049,0.44135 5.91103,0.67803 0.9955,0.14189 2.45401,0.48433 3.24115,0.76099 0.78713,0.27665 1.43115,0.45691 1.43115,0.40057 0,-0.0563 0.98226,0.39149 2.18281,0.99517 1.51202,0.76031 2.65034,1.57963 3.70417,2.66614 1.83622,1.89316 1.9718,2.5666 0.51672,2.5666 -0.8286,0 -1.18791,-0.18946 -2.05052,-1.0812 -1.4607,-1.51 -2.94139,-2.19021 -6.6055,-3.03444 -2.44271,-0.56281 -4.14457,-0.76672 -7.40497,-0.88725 -5.05203,-0.18675 -5.93111,-0.12486 -6.14505,0.43267 -0.18371,0.47874 1.32358,3.49472 2.27007,4.54224 0.34261,0.37919 0.90999,1.25465 1.26085,1.94546 0.38783,0.76363 1.0333,1.50563 1.64647,1.8927 0.70737,0.44655 1.14649,0.99784 1.47042,1.84605 0.74962,1.96285 0.57872,2.27247 -1.5611,2.82814 -2.34009,0.60768 -2.49647,0.60622 -3.35042,-0.0314 z m 0.5723,-1.8384 c 0,-0.14552 -0.12609,-0.26458 -0.2802,-0.26458 -0.15411,0 -0.20661,0.11906 -0.11668,0.26458 0.0899,0.14552 0.21603,0.26458 0.2802,0.26458 0.0642,0 0.11668,-0.11906 0.11668,-0.26458 z m -24.9368,1.91256 c -0.57741,-0.12376 -0.83923,-1.10645 -0.63627,-2.38807 0.0853,-0.53884 0.0103,-1.52739 -0.16663,-2.19679 -0.26234,-0.99233 -0.61764,-1.4626 -1.92401,-2.54657 -2.69247,-2.23407 -3.02796,-2.75683 -3.02796,-4.71814 0,-1.69265 8e-4,-1.69424 0.72761,-1.60898 1.61112,0.18897 3.45597,1.49823 4.339,3.07932 0.28445,0.50933 0.80669,1.4023 1.16052,1.98438 0.55094,0.90633 0.64396,1.39205 0.64769,3.38193 0.003,1.46246 0.15213,2.67729 0.40309,3.27794 0.53533,1.28121 -0.1259,2.03446 -1.52304,1.73498 z m -40.08953,-0.86431 c -0.75123,-0.30176 -1.48838,-1.52685 -2.84019,-4.72024 -0.58258,-1.37622 -1.19609,-2.54784 -1.36336,-2.6036 -0.16728,-0.0557 -0.82172,0.87242 -1.45432,2.0626 -1.43902,2.70743 -2.74175,4.08682 -4.24091,4.49051 -1.01976,0.27459 -1.24948,0.24269 -2.28111,-0.31682 -1.26878,-0.68813 -3.06748,-3.19701 -2.86483,-3.99596 0.0646,-0.25486 0.019,-0.40248 -0.10145,-0.32805 -0.12044,0.0744 -0.54618,-1.2494 -0.94609,-2.94186 -0.82835,-3.50566 -0.73959,-3.98832 0.71083,-3.86506 1.60493,0.13638 2.09496,0.86592 3.525,5.24791 0.52792,1.61766 1.1654,3.11972 1.41662,3.3379 0.79532,0.6907 1.76694,0.7745 2.37813,0.20509 0.30431,-0.28351 0.60205,-0.42968 0.66166,-0.32484 0.0596,0.10485 0.0697,0.0356 0.0224,-0.15396 -0.0473,-0.18953 0.0865,-0.60771 0.29717,-0.9293 0.21071,-0.32159 0.57868,-1.41668 0.81772,-2.43353 0.73549,-3.12881 0.11312,-7.49387 -1.57847,-11.07085 -1.41925,-3.0011 -2.09943,-5.83574 -2.03969,-8.50041 0.0429,-1.9139 0.5834,-2.65504 1.72692,-2.36803 2.0226,0.50764 3.65383,3.94238 6.02299,12.68213 0.15779,0.58208 0.27273,1.32537 0.25541,1.65176 -0.0336,0.63261 0.55607,2.2586 1.78206,4.91436 1.08433,2.34891 2.13262,5.05988 2.32123,6.00295 0.0894,0.44718 0.50724,-4.41852 0.66977,-4.4773 0.43839,-0.15851 1.01006,5.49818 1.01006,5.92155 0,0.20277 -0.16288,0.53155 -0.36197,0.73064 -0.19908,0.19908 -0.43949,0.60623 -0.53425,0.90479 -0.30245,0.95293 -1.76369,1.37879 -3.01136,0.87762 z m 52.32633,-0.41059 c -1.24894,-0.47886 -2.13005,-1.06448 -3.21827,-2.13896 -1.90414,-1.88011 -2.78911,-3.51382 -3.27279,-6.0418 -0.33486,-1.75015 -0.33522,-2.12547 -0.003,-2.92108 0.44577,-1.06687 0.77816,-1.1151 2.79984,-0.4062 1.90942,0.66953 2.46735,1.42738 2.40715,3.26965 -0.0256,0.78261 -0.15168,1.78967 -0.28024,2.23792 -0.20188,0.70392 -0.13806,0.90159 0.46824,1.45035 1.24106,1.12327 2.81192,1.99038 3.95593,2.18365 2.57209,0.43456 2.48553,3.07102 -0.0998,3.03879 -0.57061,-0.007 -1.81139,-0.30966 -2.75728,-0.67232 z m -2.95716,-7.42875 c -0.12874,-0.66378 -0.74701,-0.75493 -0.74701,-0.11012 0,0.32499 0.17084,0.55121 0.41628,0.55121 0.24639,0 0.38136,-0.18001 0.33073,-0.44109 z m -43.80534,5.26901 c -1.02397,-0.39928 -1.17922,-0.58864 -1.7789,-2.16967 -0.64506,-1.70065 -1.40823,-4.65849 -1.60703,-6.22843 -0.0554,-0.4375 -0.17199,-1.45029 -0.25908,-2.25065 -0.32141,-2.95387 -0.70367,-5.46558 -1.06707,-7.01146 -0.20525,-0.87313 -0.4954,-3.43297 -0.64476,-5.68854 -0.14937,-2.25558 -0.46396,-5.15474 -0.69909,-6.4426 -0.42099,-2.30582 -0.4191,-2.34996 0.1237,-2.89276 0.53834,-0.53835 0.55544,-0.53927 0.73259,-0.0397 0.0998,0.28133 0.44924,0.80917 0.77662,1.17297 0.87983,0.97771 1.51831,2.81822 2.61587,7.54063 0.54114,2.32833 1.14298,4.88818 1.33744,5.68854 0.19445,0.80036 0.50098,2.28865 0.68119,3.30729 0.18021,1.01865 0.72295,3.57849 1.20608,5.68854 0.9426,4.11679 7.58234,6.80167 1.53123,8.73125 0.0238,0.8772 -0.0237,0.92884 -0.90087,0.97905 -0.50933,0.0292 -1.43089,-0.14385 -2.04792,-0.38446 z"
         id="path9511"
         inkscape:connector-curvature="0"
         sodipodi:nodetypes="cscccccscccssccsccccccccccsccccccccsccccccccscsccccscscsscccccccccccsscssccccscccccccccccsccsccccccccsccsccccssscccccccccccccccsscccsccacccssaccccc" />
    </g>
  </g>
</svg>
