<?xml version="1.0" encoding="UTF-8" standalone="no"?>
<svg
   xmlns:dc="http://purl.org/dc/elements/1.1/"
   xmlns:cc="http://creativecommons.org/ns#"
   xmlns:rdf="http://www.w3.org/1999/02/22-rdf-syntax-ns#"
   xmlns:svg="http://www.w3.org/2000/svg"
   xmlns="http://www.w3.org/2000/svg"
   id="svg8"
   version="1.1"
   viewBox="0 0 210 297"
   height="297mm"
   width="210mm">
  <defs
     id="defs2" />
  <metadata
     id="metadata5">
    <rdf:RDF>
      <cc:Work
         rdf:about="">
        <dc:format>image/svg+xml</dc:format>
        <dc:type
           rdf:resource="http://purl.org/dc/dcmitype/StillImage" />
        <dc:title></dc:title>
      </cc:Work>
    </rdf:RDF>
  </metadata>
  <g
     id="layer1">
    <path
       id="path4520"
       d="M 21.164854,114.54167 V 75.408478 h 78.100906 73.83481 v 39.133192 21.59358 H 99.26576 21.164854 Z m 87.532586,2.52339 v -9.39031 h 9.34894 9.34895 v 9.32136 c 0,5.12675 0.0202,9.34152 0.0448,9.36614 0.0246,0.0247 8.47593,-8.38631 18.78069,-18.69099 l 18.73591,-18.735767 -18.75978,-0.02089 -18.75978,-0.02083 -9.34918,9.349174 -9.34917,9.349173 -0.0211,-9.369183 -0.0211,-9.369183 -9.38995,9.38968 -9.38996,9.389686 L 80.56764,98.284304 71.218553,88.9355 52.396701,88.91467 33.574851,88.89384 v 18.76004 18.76005 L 52.314204,107.67481 71.053458,88.935698 v 18.704712 c 0,10.28759 0.02483,18.72954 0.05516,18.75987 0.03033,0.0303 8.500222,0.0552 18.821992,0.0552 h 18.76682 z"
       style="fill:#000000;stroke-width:0.08273401" />
  </g>
</svg>
